<svg version="1.1" id="Layer_1" xmlns="http://www.w3.org/2000/svg" xmlns:xlink="http://www.w3.org/1999/xlink" x="0px" y="0px"
	 width="100%" viewBox="0 0 720 396" enable-background="new 0 0 720 396" xml:space="preserve">
<path fill="#FFFFFF" opacity="1.000000" stroke="none" 
	d="
M529.000000,397.000000 
	C352.666656,397.000000 176.833328,397.000000 1.000000,397.000000 
	C1.000000,265.000000 1.000000,133.000000 1.000000,1.000000 
	C241.000000,1.000000 481.000000,1.000000 721.000000,1.000000 
	C721.000000,133.000000 721.000000,265.000000 721.000000,397.000000 
	C657.166687,397.000000 593.333313,397.000000 529.000000,397.000000 
M140.080978,70.021309 
	C116.823540,70.021309 93.566101,70.021309 70.310089,70.021309 
	C70.310089,158.638596 70.310089,246.671509 70.310089,334.837219 
	C94.083778,334.837219 117.545387,334.837219 141.932571,334.988464 
	C317.192322,334.988464 492.452057,334.988464 667.872803,334.988464 
	C667.872803,299.699005 667.872803,264.902313 667.976379,229.266388 
	C667.942322,228.141037 667.908264,227.015701 667.991211,224.973358 
	C667.991211,173.382172 667.991211,121.790993 667.991211,70.000000 
	C666.095947,70.000000 664.782288,70.000000 663.468628,70.000000 
	C490.643890,70.000000 317.819153,69.999626 144.994415,70.006721 
	C143.665268,70.006775 142.336105,70.108536 140.080978,70.021309 
z"/>
<path fill="#000000" opacity="1.000000" stroke="none" 
	d="
M667.872803,230.105652 
	C667.872803,264.902313 667.872803,299.699005 667.872803,334.988464 
	C492.452057,334.988464 317.192322,334.988464 141.466858,334.455261 
	C141.003082,246.002304 141.005020,158.082550 141.006958,70.162796 
	C142.336105,70.108536 143.665268,70.006775 144.994415,70.006721 
	C317.819153,69.999626 490.643890,70.000000 663.468628,70.000000 
	C664.782288,70.000000 666.095947,70.000000 667.991211,70.000000 
	C667.991211,121.790993 667.991211,173.382172 667.565735,225.294174 
	C654.459412,222.115082 644.117920,225.506592 635.807739,236.847504 
	C635.807739,232.875763 635.807739,229.635559 635.807739,226.389038 
	C631.002319,226.389038 626.625732,226.389038 622.293457,226.389038 
	C622.293457,251.038589 622.293457,275.297943 622.293457,299.623413 
	C627.304565,299.623413 632.016541,299.623413 637.000000,299.623413 
	C637.000000,286.099457 636.815063,272.945831 637.119812,259.803619 
	C637.204285,256.161285 638.017761,252.153152 639.752075,249.004227 
	C644.784363,239.867172 653.078735,237.568939 663.014526,239.720123 
	C664.673889,236.436310 666.273376,233.270981 667.872803,230.105652 
M195.000000,242.500000 
	C195.000000,261.576355 195.000000,280.652740 195.000000,299.721069 
	C200.348022,299.721069 204.940598,299.721069 210.115509,299.721069 
	C210.115509,285.405945 210.115509,271.357361 210.115509,257.000000 
	C218.342377,257.000000 226.006485,257.395416 233.616943,256.924286 
	C254.692688,255.619583 269.230988,241.537491 265.800873,218.155701 
	C264.772278,211.144104 261.016388,205.297318 255.275970,200.463928 
	C247.559113,193.966415 238.696228,192.162216 229.184204,192.035324 
	C217.921585,191.885056 206.655426,192.000000 195.000000,192.000000 
	C195.000000,208.918900 195.000000,225.209442 195.000000,242.500000 
M308.200043,224.000198 
	C301.850494,224.680939 295.232727,224.465637 289.218414,226.266174 
	C281.466553,228.586884 275.928680,234.242096 272.616119,242.365112 
	C277.423553,244.378433 281.858612,246.235809 286.243317,248.072083 
	C291.628998,238.465607 300.171844,235.347031 310.584503,238.861420 
	C318.374268,241.490555 322.492737,247.436340 321.521393,254.650787 
	C305.236115,250.852646 295.298157,250.919067 285.377686,255.025146 
	C268.193848,262.137573 265.145447,282.956268 276.802124,294.999969 
	C287.050293,305.588409 307.789764,305.931396 318.064423,295.448700 
	C319.130615,294.360901 320.265198,293.340118 321.808105,291.868530 
	C321.989227,295.106842 322.116028,297.373840 322.240723,299.603058 
	C327.013062,299.603058 331.390442,299.603058 336.000000,299.603058 
	C336.000000,284.729736 335.503845,270.230652 336.127014,255.779861 
	C336.886871,238.159164 325.785858,226.659775 308.200043,224.000198 
M590.997559,283.489410 
	C583.245300,289.868988 574.535950,291.182983 565.713257,286.723633 
	C557.756409,282.701904 553.539612,275.654266 552.950317,266.000000 
	C562.876831,266.000000 572.340210,266.000000 581.803528,266.000000 
	C591.413269,266.000000 601.023010,266.000000 611.012085,266.000000 
	C610.825134,253.395020 608.490356,242.279877 599.789856,233.276474 
	C591.581604,224.782486 581.196289,223.384445 570.155212,223.997421 
	C563.166504,224.385437 557.077759,226.967560 551.897583,231.618195 
	C541.960022,240.540054 537.524109,251.753738 537.986084,265.053345 
	C538.995178,294.108002 563.376953,308.617310 588.663269,300.824158 
	C598.003357,297.945557 605.246155,291.824188 608.083862,281.704987 
	C595.149353,276.859039 595.149353,276.859039 590.997559,283.489410 
M526.968811,298.211334 
	C526.979248,282.547302 527.672668,266.846527 526.831848,251.228317 
	C525.712891,230.443466 511.335999,220.663040 492.074646,224.748749 
	C486.041504,226.028458 480.672302,230.438416 474.833832,233.502350 
	C474.833832,231.619843 474.833832,228.940582 474.833832,226.284851 
	C469.972748,226.284851 465.713226,226.284851 461.363647,226.284851 
	C461.363647,250.947159 461.363647,275.322937 461.363647,299.730591 
	C466.324188,299.730591 470.918488,299.730591 476.000000,299.730591 
	C476.000000,286.680573 475.688019,273.882141 476.161713,261.112823 
	C476.338135,256.357971 477.700928,251.377151 479.670532,247.017990 
	C483.207947,239.189026 491.897491,235.887177 500.894196,238.061111 
	C507.555054,239.670609 511.987640,246.363083 511.996429,254.887909 
	C512.010010,268.052460 512.000000,281.217010 512.000000,294.381561 
	C512.000000,296.144043 512.000000,297.906555 512.000000,300.392792 
	C517.427307,299.935333 522.123596,299.539520 526.968811,298.211334 
M441.932861,301.087280 
	C444.987671,300.697113 448.042480,300.306915 451.674591,299.843018 
	C449.628052,294.710419 448.076660,290.819641 446.606628,287.132843 
	C443.797821,287.462280 441.490479,288.137299 439.280365,287.901520 
	C435.563080,287.504913 431.476685,286.084106 431.208710,281.937347 
	C430.315430,268.114410 430.046051,254.251190 429.514923,239.786926 
	C436.361267,239.786926 442.084808,239.786926 447.692688,239.786926 
	C447.692688,234.927185 447.692688,230.665878 447.692688,225.822693 
	C441.679230,225.822693 435.958252,225.822693 429.843658,225.822693 
	C429.843658,218.302628 429.843658,211.372543 429.843658,204.366943 
	C425.042572,204.366943 420.668579,204.366943 415.882935,204.366943 
	C415.882935,211.656799 415.882935,218.588257 415.882935,226.098053 
	C411.428040,226.098053 407.364746,226.098053 403.427307,226.098053 
	C403.427307,231.078415 403.427307,235.457016 403.427307,240.234955 
	C407.783234,240.234955 411.712769,240.234955 415.497864,240.234955 
	C415.733154,240.959244 415.918060,241.264023 415.918976,241.569336 
	C415.956299,254.059067 416.211060,266.553864 415.942993,279.037354 
	C415.577698,296.047760 427.786865,301.965210 441.932861,301.087280 
M218.830460,167.994812 
	C225.281876,167.782715 232.021469,168.695236 238.126419,167.130966 
	C252.038254,163.566330 260.544495,151.390732 257.521484,132.257278 
	C247.497070,132.257278 237.440536,132.257278 227.298386,132.257278 
	C227.298386,135.579025 227.298386,138.635788 227.298386,142.121582 
	C234.326324,142.121582 241.065079,142.121582 247.803772,142.121582 
	C247.444595,151.415588 239.298203,157.270279 230.339813,158.898087 
	C220.810181,160.629684 210.648193,154.360458 206.096817,144.186646 
	C202.148544,135.360977 204.127594,124.564514 213.236908,117.528259 
	C216.795441,114.779549 221.591309,112.797768 226.045578,112.240417 
	C232.635132,111.415878 238.552155,114.534805 242.225464,117.695427 
	C245.209061,115.592644 247.764313,113.791748 250.284668,112.015442 
	C242.606277,103.670212 233.796158,100.782791 220.915985,103.056549 
	C196.647827,107.340675 187.124802,133.135269 198.244598,152.639999 
	C202.621902,160.318069 209.687408,165.063583 218.830460,167.994812 
M373.346954,126.207184 
	C357.954620,133.531586 357.858826,143.581192 359.469574,152.763718 
	C360.583679,159.114914 364.819092,163.903473 370.679993,166.871826 
	C377.057098,170.101639 383.422058,169.955124 389.595245,165.911880 
	C390.288452,172.165115 388.554840,175.613617 384.012970,177.502075 
	C378.520325,179.785828 374.271240,177.954849 368.897522,170.828903 
	C366.024353,172.062469 363.083160,173.325241 360.135773,174.592133 
	C363.507874,184.220184 374.170288,189.209030 382.177948,187.928711 
	C392.821381,186.226929 398.764435,181.250336 399.630890,171.589340 
	C400.943909,156.948624 399.973969,142.103134 399.973969,127.000031 
	C397.674011,127.000031 395.863983,126.869171 394.081482,127.034760 
	C392.074707,127.221191 390.056488,128.096039 388.107239,127.928230 
	C383.445496,127.526924 378.821320,126.689354 373.346954,126.207184 
M394.000000,233.449127 
	C393.999908,223.102600 394.055511,223.580750 383.777100,224.776321 
	C375.885498,225.694275 370.237976,229.623749 364.759583,236.043106 
	C364.759583,232.185837 364.759583,229.268982 364.759583,226.398529 
	C359.973297,226.398529 355.599213,226.398529 351.255859,226.398529 
	C351.255859,251.025635 351.255859,275.253296 351.255859,299.670654 
	C356.220703,299.670654 360.924408,299.670654 366.000000,299.670654 
	C366.000000,285.898956 366.367157,272.439545 365.859894,259.013092 
	C365.563995,251.180130 371.433411,242.369690 379.209625,240.460968 
	C383.917175,239.305466 388.833435,239.000229 394.000000,238.263947 
	C394.000000,237.008224 394.000000,235.702911 394.000000,233.449127 
M454.832031,128.360779 
	C440.993988,121.734253 427.287689,128.222519 424.270752,142.226105 
	C422.477753,150.548615 425.769653,160.428757 433.020752,165.409897 
	C438.666809,169.288452 449.457886,171.304367 456.979187,165.478821 
	C459.215454,163.746674 460.983124,161.409470 462.965515,159.349533 
	C460.725067,157.396286 458.484589,155.443024 456.351715,153.583572 
	C447.404266,161.269974 442.020233,161.337997 436.035217,154.009598 
	C445.408783,150.119232 454.670258,146.275391 465.379272,141.830765 
	C461.817291,137.232300 458.590271,133.066254 454.832031,128.360779 
M303.637787,157.902802 
	C304.425201,153.974091 305.743530,150.065323 305.891937,146.112610 
	C306.223785,137.275360 301.029144,129.953796 293.083496,127.062637 
	C284.583740,123.969872 272.924805,126.298279 268.055847,132.548187 
	C260.641693,142.065140 260.113556,156.646271 271.935486,165.231400 
	C280.810822,171.676727 295.995514,170.757507 303.637787,157.902802 
M311.000397,144.820862 
	C308.958984,162.886765 326.864166,173.892609 341.467987,167.047653 
	C354.157684,161.099854 356.702362,150.447098 352.675995,138.720596 
	C348.611847,126.883980 337.527405,124.128136 325.913849,126.666962 
	C316.869385,128.644165 312.788055,135.422394 311.000397,144.820862 
M408.000000,112.553185 
	C408.000000,130.925919 408.000000,149.298645 408.000000,167.571991 
	C411.739044,167.571991 414.774841,167.571991 417.736023,167.571991 
	C417.736023,146.264999 417.736023,125.386925 417.736023,104.340843 
	C414.431213,104.340843 411.396423,104.340843 408.000000,104.340843 
	C408.000000,106.972000 408.000000,109.273224 408.000000,112.553185 
z"/>
<path fill="#EA4436" opacity="1.000000" stroke="none" 
	d="
M140.543976,70.092056 
	C141.005020,158.082550 141.003082,246.002304 141.004059,334.379639 
	C117.545387,334.837219 94.083778,334.837219 70.310089,334.837219 
	C70.310089,246.671509 70.310089,158.638596 70.310089,70.021309 
	C93.566101,70.021309 116.823540,70.021309 140.543976,70.092056 
M111.390198,206.910828 
	C107.551300,206.910828 103.712410,206.910828 98.447067,206.910828 
	C104.327278,203.485001 108.821014,200.866943 114.381409,197.627441 
	C108.777695,194.231903 104.260620,191.494812 98.704819,188.128311 
	C105.324463,188.128311 110.607224,188.196243 115.884933,188.063187 
	C116.792168,188.040314 117.677841,187.161896 118.573471,186.678680 
	C117.822289,186.045059 117.080002,184.873291 116.318535,184.860672 
	C108.245461,184.727081 100.169342,184.777847 92.094055,184.777847 
	C91.789612,185.392761 91.485168,186.007690 91.180725,186.622604 
	C95.294090,191.866394 102.485390,193.276245 107.263275,197.375778 
	C102.844719,202.421661 94.506668,202.412521 90.924088,210.415878 
	C98.841873,210.415878 105.450630,210.552597 112.048035,210.338898 
	C114.245270,210.267731 116.413414,209.298492 118.594864,208.739822 
	C116.507088,208.130142 114.419319,207.520477 111.390198,206.910828 
M109.437248,127.981117 
	C111.435791,127.980721 113.470833,128.207230 115.419052,127.893936 
	C116.568207,127.709129 117.579788,126.668945 118.653236,126.013451 
	C117.507126,125.409988 116.407188,124.431862 115.204971,124.283699 
	C112.938217,124.004349 110.612549,124.203064 108.335739,124.203064 
	C106.835869,119.192955 111.082443,118.733109 113.313904,117.121132 
	C118.529015,113.353821 118.631691,113.495956 117.818184,109.745598 
	C114.445816,111.962799 111.171440,114.115578 107.800545,116.331810 
	C105.521141,112.367744 102.658539,109.025932 98.196365,110.696030 
	C95.688171,111.634781 93.008774,114.466095 92.202568,117.013260 
	C91.171982,120.269325 91.952492,124.098625 91.952492,127.981102 
	C97.845215,127.981102 103.151878,127.981102 109.437248,127.981117 
M111.488472,263.572266 
	C110.290291,263.028961 109.092117,262.485687 107.893944,261.942383 
	C108.609825,260.763458 109.086044,259.292542 110.091904,258.466858 
	C112.133621,256.790924 114.633224,255.658218 116.605476,253.917862 
	C117.729622,252.925888 118.185791,251.176926 118.942757,249.768845 
	C118.531387,249.535019 118.120018,249.301193 117.708649,249.067352 
	C114.438644,251.235764 111.168648,253.404160 107.605217,255.767151 
	C105.534721,250.732422 101.947624,248.628571 97.152748,250.127640 
	C92.373924,251.621689 91.594032,255.770782 91.796730,260.225677 
	C91.892792,262.336975 91.813225,264.456299 91.813225,266.806580 
	C100.982483,266.806580 109.687622,266.806580 118.685791,266.806580 
	C118.299622,261.632568 114.487839,264.341858 111.488472,263.572266 
M106.959465,148.409225 
	C106.958412,146.912262 107.179893,145.369003 106.881378,143.933899 
	C106.667397,142.905167 105.757652,142.021149 105.158310,141.072571 
	C104.546494,142.027908 103.505890,142.941025 103.406837,143.946869 
	C103.154533,146.508957 103.322868,149.112473 103.322868,151.669495 
	C100.177788,151.669495 97.787216,151.669495 95.076065,151.669495 
	C95.076065,148.201233 95.169823,145.059448 95.002342,141.931641 
	C94.965866,141.250290 93.994820,140.618988 93.454201,139.964630 
	C92.900848,140.615112 91.889679,141.250854 91.868202,141.918442 
	C91.725327,146.359848 91.794144,150.808075 91.794144,155.418823 
	C101.004990,155.418823 109.687317,155.418823 118.745918,155.418823 
	C118.745918,150.891037 118.866028,146.750916 118.652992,142.628006 
	C118.605659,141.711975 117.384155,140.856613 116.703278,139.973328 
	C116.149940,140.962189 115.195724,141.921188 115.119438,142.945587 
	C114.902367,145.860321 115.043266,148.801727 115.043266,151.650681 
	C108.120125,152.272720 108.120125,152.272720 106.959465,148.409225 
M98.564194,238.074341 
	C105.140991,238.074341 111.717796,238.074341 118.720947,238.074341 
	C118.720947,233.322800 118.841827,229.197144 118.629677,225.088684 
	C118.581123,224.148407 117.384949,223.267380 116.716949,222.359085 
	C116.165665,223.369705 115.217010,224.350677 115.138969,225.396606 
	C114.920883,228.319229 115.063087,231.268723 115.063087,234.123642 
	C112.020157,234.123642 109.637123,234.123642 106.937416,234.123642 
	C106.937416,231.250549 107.065445,228.769211 106.871674,226.313263 
	C106.798599,225.387070 105.980797,224.519623 105.502495,223.625397 
	C104.787415,224.486115 103.558380,225.289978 103.455650,226.218460 
	C103.171463,228.786926 103.357254,231.407394 103.357254,234.220383 
	C100.295128,234.220383 97.912071,234.220383 95.070984,234.220383 
	C95.070984,230.955704 95.183990,227.991287 95.003700,225.044830 
	C94.947929,224.133194 94.094330,223.270386 93.606010,222.385208 
	C93.005142,223.167679 91.917480,223.930374 91.884773,224.735916 
	C91.711517,229.003677 91.803398,233.282196 91.803398,238.074356 
	C94.016716,238.074356 95.800308,238.074356 98.564194,238.074341 
M93.008850,281.927246 
	C92.474449,286.401520 91.940048,290.875763 91.345390,295.854523 
	C100.314331,295.854523 108.116051,295.921112 115.913376,295.766479 
	C116.841179,295.748077 117.745041,294.522644 118.660004,293.856720 
	C117.690994,293.255646 116.765106,292.242584 115.744362,292.135742 
	C113.309036,291.880829 110.828957,292.053528 108.101181,292.053528 
	C107.703484,286.629639 108.499466,280.934906 102.347382,278.582825 
	C98.798035,277.225830 95.841164,278.434479 93.008850,281.927246 
M93.906456,168.193008 
	C93.244408,169.066193 92.582352,169.939377 91.920296,170.812531 
	C92.876724,171.208389 93.828293,171.933090 94.790359,171.947311 
	C101.569489,172.047501 108.352478,172.079056 115.129761,171.929581 
	C116.326591,171.903183 117.502457,170.926117 118.688011,170.388062 
	C117.516693,169.649689 116.363602,168.308701 115.171043,168.272629 
	C108.396675,168.067719 101.612869,168.174622 93.906456,168.193008 
z"/>
<path fill="#757575" opacity="1.000000" stroke="none" 
	d="
M667.924561,229.686035 
	C666.273376,233.270981 664.673889,236.436310 663.014526,239.720123 
	C653.078735,237.568939 644.784363,239.867172 639.752075,249.004227 
	C638.017761,252.153152 637.204285,256.161285 637.119812,259.803619 
	C636.815063,272.945831 637.000000,286.099457 637.000000,299.623413 
	C632.016541,299.623413 627.304565,299.623413 622.293457,299.623413 
	C622.293457,275.297943 622.293457,251.038589 622.293457,226.389038 
	C626.625732,226.389038 631.002319,226.389038 635.807739,226.389038 
	C635.807739,229.635559 635.807739,232.875763 635.807739,236.847504 
	C644.117920,225.506592 654.459412,222.115082 667.507202,225.752670 
	C667.908264,227.015701 667.942322,228.141037 667.924561,229.686035 
z"/>
<path fill="#757575" opacity="1.000000" stroke="none" 
	d="
M195.000000,242.000000 
	C195.000000,225.209442 195.000000,208.918900 195.000000,192.000000 
	C206.655426,192.000000 217.921585,191.885056 229.184204,192.035324 
	C238.696228,192.162216 247.559113,193.966415 255.275970,200.463928 
	C261.016388,205.297318 264.772278,211.144104 265.800873,218.155701 
	C269.230988,241.537491 254.692688,255.619583 233.616943,256.924286 
	C226.006485,257.395416 218.342377,257.000000 210.115509,257.000000 
	C210.115509,271.357361 210.115509,285.405945 210.115509,299.721069 
	C204.940598,299.721069 200.348022,299.721069 195.000000,299.721069 
	C195.000000,280.652740 195.000000,261.576355 195.000000,242.000000 
M210.000000,223.501495 
	C210.000000,229.911316 210.000000,236.321136 210.000000,243.490997 
	C219.984253,242.959595 229.249359,242.918274 238.388748,241.825546 
	C244.768219,241.062775 251.672043,232.175781 251.161682,223.570770 
	C250.676575,215.391663 243.131180,207.676132 237.607178,207.233856 
	C228.584351,206.511475 219.461487,207.038666 210.000000,207.038666 
	C210.000000,212.589691 210.000000,217.546509 210.000000,223.501495 
z"/>
<path fill="#757575" opacity="1.000000" stroke="none" 
	d="
M308.658997,224.000854 
	C325.785858,226.659775 336.886871,238.159164 336.127014,255.779861 
	C335.503845,270.230652 336.000000,284.729736 336.000000,299.603058 
	C331.390442,299.603058 327.013062,299.603058 322.240723,299.603058 
	C322.116028,297.373840 321.989227,295.106842 321.808105,291.868530 
	C320.265198,293.340118 319.130615,294.360901 318.064423,295.448700 
	C307.789764,305.931396 287.050293,305.588409 276.802124,294.999969 
	C265.145447,282.956268 268.193848,262.137573 285.377686,255.025146 
	C295.298157,250.919067 305.236115,250.852646 321.521393,254.650787 
	C322.492737,247.436340 318.374268,241.490555 310.584503,238.861420 
	C300.171844,235.347031 291.628998,238.465607 286.243317,248.072083 
	C281.858612,246.235809 277.423553,244.378433 272.616119,242.365112 
	C275.928680,234.242096 281.466553,228.586884 289.218414,226.266174 
	C295.232727,224.465637 301.850494,224.680939 308.658997,224.000854 
M315.781464,265.344482 
	C308.814880,263.814117 301.922760,263.141663 295.008972,265.881195 
	C289.598785,268.024933 286.448517,271.855469 285.949921,276.902710 
	C285.377075,282.702118 288.414398,285.577240 293.273712,287.746124 
	C303.065979,292.116760 316.195068,285.794495 320.540131,275.579926 
	C323.581451,268.430206 323.179321,268.683380 315.781464,265.344482 
z"/>
<path fill="#757575" opacity="1.000000" stroke="none" 
	d="
M591.252258,283.219666 
	C595.149353,276.859039 595.149353,276.859039 608.083862,281.704987 
	C605.246155,291.824188 598.003357,297.945557 588.663269,300.824158 
	C563.376953,308.617310 538.995178,294.108002 537.986084,265.053345 
	C537.524109,251.753738 541.960022,240.540054 551.897583,231.618195 
	C557.077759,226.967560 563.166504,224.385437 570.155212,223.997421 
	C581.196289,223.384445 591.581604,224.782486 599.789856,233.276474 
	C608.490356,242.279877 610.825134,253.395020 611.012085,266.000000 
	C601.023010,266.000000 591.413269,266.000000 581.803528,266.000000 
	C572.340210,266.000000 562.876831,266.000000 552.950317,266.000000 
	C553.539612,275.654266 557.756409,282.701904 565.713257,286.723633 
	C574.535950,291.182983 583.245300,289.868988 591.252258,283.219666 
M583.469727,254.000000 
	C587.208374,254.000000 590.947021,254.000000 594.819214,254.000000 
	C591.902405,242.774536 583.766235,236.247330 573.971802,237.041977 
	C563.526978,237.889420 555.784241,245.024216 554.608887,254.000000 
	C563.918701,254.000000 573.199646,254.000000 583.469727,254.000000 
z"/>
<path fill="#757575" opacity="1.000000" stroke="none" 
	d="
M526.894348,298.677490 
	C522.123596,299.539520 517.427307,299.935333 512.000000,300.392792 
	C512.000000,297.906555 512.000000,296.144043 512.000000,294.381561 
	C512.000000,281.217010 512.010010,268.052460 511.996429,254.887909 
	C511.987640,246.363083 507.555054,239.670609 500.894196,238.061111 
	C491.897491,235.887177 483.207947,239.189026 479.670532,247.017990 
	C477.700928,251.377151 476.338135,256.357971 476.161713,261.112823 
	C475.688019,273.882141 476.000000,286.680573 476.000000,299.730591 
	C470.918488,299.730591 466.324188,299.730591 461.363647,299.730591 
	C461.363647,275.322937 461.363647,250.947159 461.363647,226.284851 
	C465.713226,226.284851 469.972748,226.284851 474.833832,226.284851 
	C474.833832,228.940582 474.833832,231.619843 474.833832,233.502350 
	C480.672302,230.438416 486.041504,226.028458 492.074646,224.748749 
	C511.335999,220.663040 525.712891,230.443466 526.831848,251.228317 
	C527.672668,266.846527 526.979248,282.547302 526.894348,298.677490 
z"/>
<path fill="#757575" opacity="1.000000" stroke="none" 
	d="
M441.528290,301.245789 
	C427.786865,301.965210 415.577698,296.047760 415.942993,279.037354 
	C416.211060,266.553864 415.956299,254.059067 415.918976,241.569336 
	C415.918060,241.264023 415.733154,240.959244 415.497864,240.234955 
	C411.712769,240.234955 407.783234,240.234955 403.427307,240.234955 
	C403.427307,235.457016 403.427307,231.078415 403.427307,226.098053 
	C407.364746,226.098053 411.428040,226.098053 415.882935,226.098053 
	C415.882935,218.588257 415.882935,211.656799 415.882935,204.366943 
	C420.668579,204.366943 425.042572,204.366943 429.843658,204.366943 
	C429.843658,211.372543 429.843658,218.302628 429.843658,225.822693 
	C435.958252,225.822693 441.679230,225.822693 447.692688,225.822693 
	C447.692688,230.665878 447.692688,234.927185 447.692688,239.786926 
	C442.084808,239.786926 436.361267,239.786926 429.514923,239.786926 
	C430.046051,254.251190 430.315430,268.114410 431.208710,281.937347 
	C431.476685,286.084106 435.563080,287.504913 439.280365,287.901520 
	C441.490479,288.137299 443.797821,287.462280 446.606628,287.132843 
	C448.076660,290.819641 449.628052,294.710419 451.674591,299.843018 
	C448.042480,300.306915 444.987671,300.697113 441.528290,301.245789 
z"/>
<path fill="#4285F4" opacity="1.000000" stroke="none" 
	d="
M218.408798,167.975830 
	C209.687408,165.063583 202.621902,160.318069 198.244598,152.639999 
	C187.124802,133.135269 196.647827,107.340675 220.915985,103.056549 
	C233.796158,100.782791 242.606277,103.670212 250.284668,112.015442 
	C247.764313,113.791748 245.209061,115.592644 242.225464,117.695427 
	C238.552155,114.534805 232.635132,111.415878 226.045578,112.240417 
	C221.591309,112.797768 216.795441,114.779549 213.236908,117.528259 
	C204.127594,124.564514 202.148544,135.360977 206.096817,144.186646 
	C210.648193,154.360458 220.810181,160.629684 230.339813,158.898087 
	C239.298203,157.270279 247.444595,151.415588 247.803772,142.121582 
	C241.065079,142.121582 234.326324,142.121582 227.298386,142.121582 
	C227.298386,138.635788 227.298386,135.579025 227.298386,132.257278 
	C237.440536,132.257278 247.497070,132.257278 257.521484,132.257278 
	C260.544495,151.390732 252.038254,163.566330 238.126419,167.130966 
	C232.021469,168.695236 225.281876,167.782715 218.408798,167.975830 
z"/>
<path fill="#4285F4" opacity="1.000000" stroke="none" 
	d="
M373.764465,126.117546 
	C378.821320,126.689354 383.445496,127.526924 388.107239,127.928230 
	C390.056488,128.096039 392.074707,127.221191 394.081482,127.034760 
	C395.863983,126.869171 397.674011,127.000031 399.973969,127.000031 
	C399.973969,142.103134 400.943909,156.948624 399.630890,171.589340 
	C398.764435,181.250336 392.821381,186.226929 382.177948,187.928711 
	C374.170288,189.209030 363.507874,184.220184 360.138855,174.590088 
	C363.083160,173.325241 366.024353,172.062469 368.897522,170.828903 
	C374.271240,177.954849 378.520325,179.785828 384.012970,177.502075 
	C388.554840,175.613617 390.288452,172.165115 389.595245,165.911880 
	C383.422058,169.955124 377.057098,170.101639 370.679993,166.871826 
	C364.819092,163.903473 360.583679,159.114914 359.469574,152.763718 
	C357.858826,143.581192 357.954620,133.531586 373.764465,126.117546 
M369.981689,142.809677 
	C367.708038,149.153961 370.334351,156.062668 375.926086,158.446838 
	C381.800415,160.951508 387.113831,158.391968 390.110016,151.614304 
	C392.636627,145.898880 389.933167,138.782181 384.195343,136.044235 
	C378.815948,133.477341 375.705170,134.788116 369.981689,142.809677 
z"/>
<path fill="#757575" opacity="1.000000" stroke="none" 
	d="
M394.000000,233.923370 
	C394.000000,235.702911 394.000000,237.008224 394.000000,238.263947 
	C388.833435,239.000229 383.917175,239.305466 379.209625,240.460968 
	C371.433411,242.369690 365.563995,251.180130 365.859894,259.013092 
	C366.367157,272.439545 366.000000,285.898956 366.000000,299.670654 
	C360.924408,299.670654 356.220703,299.670654 351.255859,299.670654 
	C351.255859,275.253296 351.255859,251.025635 351.255859,226.398529 
	C355.599213,226.398529 359.973297,226.398529 364.759583,226.398529 
	C364.759583,229.268982 364.759583,232.185837 364.759583,236.043106 
	C370.237976,229.623749 375.885498,225.694275 383.777100,224.776321 
	C394.055511,223.580750 393.999908,223.102600 394.000000,233.923370 
z"/>
<path fill="#EA4335" opacity="1.000000" stroke="none" 
	d="
M455.097656,128.630493 
	C458.590271,133.066254 461.817291,137.232300 465.379272,141.830765 
	C454.670258,146.275391 445.408783,150.119232 436.035217,154.009598 
	C442.020233,161.337997 447.404266,161.269974 456.351715,153.583572 
	C458.484589,155.443024 460.725067,157.396286 462.965515,159.349518 
	C460.983124,161.409470 459.215454,163.746674 456.979187,165.478821 
	C449.457886,171.304367 438.666809,169.288452 433.020752,165.409897 
	C425.769653,160.428757 422.477753,150.548615 424.270752,142.226105 
	C427.287689,128.222519 440.993988,121.734253 455.097656,128.630493 
M438.519958,143.890366 
	C442.736450,142.078354 446.952942,140.266342 451.479279,138.321167 
	C444.251373,131.950577 436.774811,135.454483 434.311310,145.744415 
	C435.560120,145.133331 436.672699,144.588928 438.519958,143.890366 
z"/>
<path fill="#EA4335" opacity="1.000000" stroke="none" 
	d="
M303.380341,158.187531 
	C295.995514,170.757507 280.810822,171.676727 271.935486,165.231400 
	C260.113556,156.646271 260.641693,142.065140 268.055847,132.548187 
	C272.924805,126.298279 284.583740,123.969872 293.083496,127.062637 
	C301.029144,129.953796 306.223785,137.275360 305.891937,146.112610 
	C305.743530,150.065323 304.425201,153.974091 303.380341,158.187531 
M280.146667,158.615585 
	C281.275574,158.816315 282.397064,159.115219 283.534637,159.200684 
	C288.299469,159.558670 291.743561,157.806000 294.231140,153.465897 
	C296.945282,148.730515 296.703705,144.256104 293.597534,140.236694 
	C290.632782,136.400299 287.130951,133.558411 281.318054,135.746704 
	C276.042816,137.732605 273.863434,141.759735 273.208557,146.405869 
	C272.507690,151.378204 275.133026,155.458496 280.146667,158.615585 
z"/>
<path fill="#FBBC05" opacity="1.000000" stroke="none" 
	d="
M311.002197,144.377625 
	C312.788055,135.422394 316.869385,128.644165 325.913849,126.666962 
	C337.527405,124.128136 348.611847,126.883980 352.675995,138.720596 
	C356.702362,150.447098 354.157684,161.099854 341.467987,167.047653 
	C326.864166,173.892609 308.958984,162.886765 311.002197,144.377625 
M325.029236,156.511841 
	C328.255005,158.771255 331.717468,159.994934 335.703339,158.980377 
	C339.890930,157.914505 343.626801,153.128998 344.013519,148.519333 
	C344.542694,142.211395 340.674896,137.636414 336.065735,135.677719 
	C331.447083,133.714966 327.510590,135.582672 324.334290,139.173691 
	C319.972809,144.104584 320.026184,148.307388 325.029236,156.511841 
z"/>
<path fill="#34A853" opacity="1.000000" stroke="none" 
	d="
M408.000000,112.063820 
	C408.000000,109.273224 408.000000,106.972000 408.000000,104.340843 
	C411.396423,104.340843 414.431213,104.340843 417.736023,104.340843 
	C417.736023,125.386925 417.736023,146.264999 417.736023,167.571991 
	C414.774841,167.571991 411.739044,167.571991 408.000000,167.571991 
	C408.000000,149.298645 408.000000,130.925919 408.000000,112.063820 
z"/>
<path fill="#FEF7F7" opacity="1.000000" stroke="none" 
	d="
M111.860870,206.910812 
	C114.419319,207.520477 116.507088,208.130142 118.594864,208.739807 
	C116.413414,209.298492 114.245270,210.267731 112.048035,210.338898 
	C105.450630,210.552597 98.841873,210.415878 90.924088,210.415878 
	C94.506668,202.412521 102.844719,202.421661 107.263275,197.375778 
	C102.485390,193.276245 95.294090,191.866394 91.180725,186.622604 
	C91.485168,186.007690 91.789612,185.392761 92.094055,184.777847 
	C100.169342,184.777847 108.245461,184.727081 116.318535,184.860672 
	C117.080002,184.873291 117.822289,186.045059 118.573471,186.678680 
	C117.677841,187.161896 116.792168,188.040314 115.884933,188.063187 
	C110.607224,188.196243 105.324463,188.128311 98.704819,188.128311 
	C104.260620,191.494812 108.777695,194.231903 114.381409,197.627441 
	C108.821014,200.866943 104.327278,203.485001 98.447067,206.910828 
	C103.712410,206.910828 107.551300,206.910828 111.860870,206.910812 
z"/>
<path fill="#FDEDEC" opacity="1.000000" stroke="none" 
	d="
M108.947891,127.981110 
	C103.151878,127.981102 97.845215,127.981102 91.952492,127.981102 
	C91.952492,124.098625 91.171982,120.269325 92.202568,117.013260 
	C93.008774,114.466095 95.688171,111.634781 98.196365,110.696030 
	C102.658539,109.025932 105.521141,112.367744 107.800545,116.331810 
	C111.171440,114.115578 114.445816,111.962799 117.818184,109.745598 
	C118.631691,113.495956 118.529015,113.353821 113.313904,117.121132 
	C111.082443,118.733109 106.835869,119.192955 108.335739,124.203064 
	C110.612549,124.203064 112.938217,124.004349 115.204971,124.283699 
	C116.407188,124.431862 117.507126,125.409988 118.653236,126.013458 
	C117.579788,126.668945 116.568207,127.709129 115.419052,127.893936 
	C113.470833,128.207230 111.435791,127.980721 108.947891,127.981110 
M104.271606,119.795006 
	C104.229469,116.370461 103.064392,113.791512 99.105690,114.150833 
	C95.589241,114.470001 94.491425,117.826591 95.761360,124.208458 
	C97.470947,124.208458 99.278351,124.073936 101.057816,124.239510 
	C103.828056,124.497284 104.550186,123.101006 104.271606,119.795006 
z"/>
<path fill="#FEF5F5" opacity="1.000000" stroke="none" 
	d="
M111.933784,263.572998 
	C114.487839,264.341858 118.299622,261.632568 118.685791,266.806580 
	C109.687622,266.806580 100.982483,266.806580 91.813225,266.806580 
	C91.813225,264.456299 91.892792,262.336975 91.796730,260.225677 
	C91.594032,255.770782 92.373924,251.621689 97.152748,250.127640 
	C101.947624,248.628571 105.534721,250.732422 107.605217,255.767151 
	C111.168648,253.404160 114.438644,251.235764 117.708649,249.067352 
	C118.120018,249.301193 118.531387,249.535019 118.942757,249.768845 
	C118.185791,251.176926 117.729622,252.925888 116.605476,253.917862 
	C114.633224,255.658218 112.133621,256.790924 110.091904,258.466858 
	C109.086044,259.292542 108.609825,260.763458 107.893936,261.942383 
	C109.092117,262.485687 110.290291,263.028961 111.933784,263.572998 
M95.034164,261.402496 
	C97.262733,266.461853 100.962318,262.636292 104.165497,263.534851 
	C104.165497,260.935852 104.681252,258.781464 104.014412,257.094574 
	C103.398880,255.537430 101.597031,253.585449 100.166580,253.454163 
	C98.699425,253.319534 96.697586,254.899109 95.598671,256.266144 
	C94.827698,257.225220 95.178421,259.085968 95.034164,261.402496 
z"/>
<path fill="#FCE9E7" opacity="1.000000" stroke="none" 
	d="
M106.961090,148.871887 
	C108.120125,152.272720 108.120125,152.272720 115.043266,151.650681 
	C115.043266,148.801727 114.902367,145.860321 115.119438,142.945587 
	C115.195724,141.921188 116.149940,140.962189 116.703278,139.973328 
	C117.384155,140.856613 118.605659,141.711975 118.652992,142.628006 
	C118.866028,146.750916 118.745918,150.891037 118.745918,155.418823 
	C109.687317,155.418823 101.004990,155.418823 91.794144,155.418823 
	C91.794144,150.808075 91.725327,146.359848 91.868202,141.918442 
	C91.889679,141.250854 92.900848,140.615112 93.454201,139.964630 
	C93.994820,140.618988 94.965866,141.250290 95.002342,141.931641 
	C95.169823,145.059448 95.076065,148.201233 95.076065,151.669495 
	C97.787216,151.669495 100.177788,151.669495 103.322868,151.669495 
	C103.322868,149.112473 103.154533,146.508957 103.406837,143.946869 
	C103.505890,142.941025 104.546494,142.027908 105.158310,141.072571 
	C105.757652,142.021149 106.667397,142.905167 106.881378,143.933899 
	C107.179893,145.369003 106.958412,146.912262 106.961090,148.871887 
z"/>
<path fill="#FDEFEE" opacity="1.000000" stroke="none" 
	d="
M98.074051,238.074341 
	C95.800308,238.074356 94.016716,238.074356 91.803398,238.074356 
	C91.803398,233.282196 91.711517,229.003677 91.884773,224.735916 
	C91.917480,223.930374 93.005142,223.167679 93.606003,222.385208 
	C94.094330,223.270386 94.947929,224.133194 95.003700,225.044830 
	C95.183990,227.991287 95.070984,230.955704 95.070984,234.220383 
	C97.912071,234.220383 100.295128,234.220383 103.357254,234.220383 
	C103.357254,231.407394 103.171463,228.786926 103.455650,226.218460 
	C103.558380,225.289978 104.787415,224.486115 105.502495,223.625397 
	C105.980797,224.519623 106.798599,225.387070 106.871674,226.313263 
	C107.065445,228.769211 106.937416,231.250549 106.937416,234.123642 
	C109.637123,234.123642 112.020157,234.123642 115.063087,234.123642 
	C115.063087,231.268723 114.920883,228.319229 115.138969,225.396606 
	C115.217010,224.350677 116.165665,223.369705 116.716949,222.359085 
	C117.384949,223.267380 118.581123,224.148407 118.629677,225.088684 
	C118.841827,229.197144 118.720947,233.322800 118.720947,238.074341 
	C111.717796,238.074341 105.140991,238.074341 98.074051,238.074341 
z"/>
<path fill="#FDECEA" opacity="1.000000" stroke="none" 
	d="
M93.229309,281.586182 
	C95.841164,278.434479 98.798035,277.225830 102.347382,278.582825 
	C108.499466,280.934906 107.703484,286.629639 108.101181,292.053528 
	C110.828957,292.053528 113.309036,291.880829 115.744362,292.135742 
	C116.765106,292.242584 117.690994,293.255646 118.660004,293.856720 
	C117.745041,294.522644 116.841179,295.748077 115.913376,295.766479 
	C108.116051,295.921112 100.314331,295.854523 91.345390,295.854523 
	C91.940048,290.875763 92.474449,286.401520 93.229309,281.586182 
M102.321144,292.034241 
	C106.166656,289.825684 104.307014,286.545837 103.249756,284.030701 
	C102.776207,282.904205 99.628365,281.828339 98.298462,282.330383 
	C93.747437,284.048401 95.265244,288.116760 95.196526,292.054047 
	C97.505623,292.054047 99.451508,292.054047 102.321144,292.034241 
z"/>
<path fill="#FCE6E4" opacity="1.000000" stroke="none" 
	d="
M94.369370,168.184235 
	C101.612869,168.174622 108.396675,168.067719 115.171043,168.272629 
	C116.363602,168.308701 117.516693,169.649689 118.688004,170.388062 
	C117.502457,170.926117 116.326591,171.903183 115.129761,171.929581 
	C108.352478,172.079056 101.569489,172.047501 94.790359,171.947311 
	C93.828293,171.933090 92.876724,171.208389 91.920296,170.812531 
	C92.582352,169.939377 93.244408,169.066193 94.369370,168.184235 
z"/>
<path fill="#000000" opacity="1.000000" stroke="none" 
	d="
M210.000000,223.002411 
	C210.000000,217.546509 210.000000,212.589691 210.000000,207.038666 
	C219.461487,207.038666 228.584351,206.511475 237.607178,207.233856 
	C243.131180,207.676132 250.676575,215.391663 251.161682,223.570770 
	C251.672043,232.175781 244.768219,241.062775 238.388748,241.825546 
	C229.249359,242.918274 219.984253,242.959595 210.000000,243.490997 
	C210.000000,236.321136 210.000000,229.911316 210.000000,223.002411 
z"/>
<path fill="#000000" opacity="1.000000" stroke="none" 
	d="
M316.109436,265.592468 
	C323.179321,268.683380 323.581451,268.430206 320.540131,275.579926 
	C316.195068,285.794495 303.065979,292.116760 293.273712,287.746124 
	C288.414398,285.577240 285.377075,282.702118 285.949921,276.902710 
	C286.448517,271.855469 289.598785,268.024933 295.008972,265.881195 
	C301.922760,263.141663 308.814880,263.814117 316.109436,265.592468 
z"/>
<path fill="#000000" opacity="1.000000" stroke="none" 
	d="
M582.975159,254.000000 
	C573.199646,254.000000 563.918701,254.000000 554.608887,254.000000 
	C555.784241,245.024216 563.526978,237.889420 573.971802,237.041977 
	C583.766235,236.247330 591.902405,242.774536 594.819214,254.000000 
	C590.947021,254.000000 587.208374,254.000000 582.975159,254.000000 
z"/>
<path fill="#000000" opacity="1.000000" stroke="none" 
	d="
M370.007324,142.410797 
	C375.705170,134.788116 378.815948,133.477341 384.195343,136.044235 
	C389.933167,138.782181 392.636627,145.898880 390.110016,151.614304 
	C387.113831,158.391968 381.800415,160.951508 375.926086,158.446838 
	C370.334351,156.062668 367.708038,149.153961 370.007324,142.410797 
z"/>
<path fill="#000000" opacity="1.000000" stroke="none" 
	d="
M438.152588,143.967438 
	C436.672699,144.588928 435.560120,145.133331 434.311310,145.744415 
	C436.774811,135.454483 444.251373,131.950577 451.479279,138.321167 
	C446.952942,140.266342 442.736450,142.078354 438.152588,143.967438 
z"/>
<path fill="#000000" opacity="1.000000" stroke="none" 
	d="
M279.875641,158.344971 
	C275.133026,155.458496 272.507690,151.378204 273.208557,146.405869 
	C273.863434,141.759735 276.042816,137.732605 281.318054,135.746704 
	C287.130951,133.558411 290.632782,136.400299 293.597534,140.236694 
	C296.703705,144.256104 296.945282,148.730515 294.231140,153.465897 
	C291.743561,157.806000 288.299469,159.558670 283.534637,159.200684 
	C282.397064,159.115219 281.275574,158.816315 279.875641,158.344971 
z"/>
<path fill="#000000" opacity="1.000000" stroke="none" 
	d="
M324.756226,156.238693 
	C320.026184,148.307388 319.972809,144.104584 324.334290,139.173691 
	C327.510590,135.582672 331.447083,133.714966 336.065735,135.677719 
	C340.674896,137.636414 344.542694,142.211395 344.013519,148.519333 
	C343.626801,153.128998 339.890930,157.914505 335.703339,158.980377 
	C331.717468,159.994934 328.255005,158.771255 324.756226,156.238693 
z"/>
<path fill="#EA4739" opacity="1.000000" stroke="none" 
	d="
M104.273346,120.246437 
	C104.550186,123.101006 103.828056,124.497284 101.057816,124.239510 
	C99.278351,124.073936 97.470947,124.208458 95.761360,124.208458 
	C94.491425,117.826591 95.589241,114.470001 99.105690,114.150833 
	C103.064392,113.791512 104.229469,116.370461 104.273346,120.246437 
z"/>
<path fill="#EB4F42" opacity="1.000000" stroke="none" 
	d="
M95.031204,260.973267 
	C95.178421,259.085968 94.827698,257.225220 95.598671,256.266144 
	C96.697586,254.899109 98.699425,253.319534 100.166580,253.454163 
	C101.597031,253.585449 103.398880,255.537430 104.014412,257.094574 
	C104.681252,258.781464 104.165497,260.935852 104.165497,263.534851 
	C100.962318,262.636292 97.262733,266.461853 95.031204,260.973267 
z"/>
<path fill="#EA4638" opacity="1.000000" stroke="none" 
	d="
M101.859268,292.044128 
	C99.451508,292.054047 97.505623,292.054047 95.196526,292.054047 
	C95.265244,288.116760 93.747437,284.048401 98.298462,282.330383 
	C99.628365,281.828339 102.776207,282.904205 103.249756,284.030701 
	C104.307014,286.545837 106.166656,289.825684 101.859268,292.044128 
z"/>
</svg>