<svg version="1.1" id="Layer_1" xmlns="http://www.w3.org/2000/svg" xmlns:xlink="http://www.w3.org/1999/xlink" x="0px" y="0px"
	 width="100%" viewBox="0 0 1304 498" enable-background="new 0 0 1304 498" xml:space="preserve">
<path fill="#FFFFFF" opacity="1.000000" stroke="none" 
	d="
M1004.000000,499.000000 
	C669.333374,499.000000 335.166718,499.000000 1.000045,499.000000 
	C1.000030,333.000031 1.000030,167.000061 1.000015,1.000067 
	C435.666626,1.000045 870.333252,1.000045 1305.000000,1.000022 
	C1305.000000,166.999939 1305.000000,332.999878 1305.000000,498.999908 
	C1204.833374,499.000000 1104.666626,499.000000 1004.000000,499.000000 
M1243.988647,32.059155 
	C1243.988647,28.809780 1243.988647,25.560406 1243.988647,22.154497 
	C1230.373535,22.154497 1217.204712,22.154497 1203.352661,22.026958 
	C1202.894043,22.070957 1202.435303,22.114954 1201.052734,22.011234 
	C821.441711,22.011234 441.830719,22.011234 62.165134,22.011234 
	C62.165134,35.041626 62.165134,47.510098 62.014023,60.907837 
	C62.009350,106.145668 61.991745,151.383499 62.007771,196.621338 
	C62.012657,210.421463 62.110081,224.221542 62.011669,238.945053 
	C62.011669,315.855255 62.011669,392.765472 62.011669,470.000000 
	C64.260880,470.000000 66.057953,470.000000 67.855019,470.000000 
	C346.734375,470.000000 625.613770,470.000275 904.493103,469.994537 
	C906.322937,469.994507 908.152710,469.911530 910.896484,470.016205 
	C914.604858,469.955780 918.313232,469.895325 922.945007,469.988312 
	C1029.831543,469.988312 1136.718018,469.988312 1244.000000,469.988312 
	C1244.000000,468.154541 1244.000000,466.700012 1244.000000,465.245514 
	C1244.000000,324.500000 1244.000366,183.754471 1243.993408,43.008945 
	C1243.993286,41.680370 1243.894043,40.351803 1243.976929,38.169655 
	C1243.931885,36.438450 1243.886719,34.707245 1243.988647,32.059155 
z"/>
<path fill="#000000" opacity="1.000000" stroke="none" 
	d="
M909.982544,469.867310 
	C908.152710,469.911530 906.322937,469.994507 904.493103,469.994537 
	C625.613770,470.000275 346.734375,470.000000 67.855019,470.000000 
	C66.057953,470.000000 64.260880,470.000000 62.011669,470.000000 
	C62.011669,392.765472 62.011669,315.855255 62.546486,238.476379 
	C73.080734,238.005081 83.085655,237.809586 93.076942,238.093597 
	C97.144615,238.209213 98.116745,236.830231 98.079659,232.970261 
	C97.901932,214.472931 97.992409,195.972931 98.012634,177.473923 
	C98.014496,175.773254 98.193367,174.072784 98.375992,170.860352 
	C100.153946,173.141418 100.983231,174.091354 101.687820,175.126205 
	C114.762489,194.329285 127.918953,213.478104 140.800049,232.810349 
	C143.244751,236.479385 145.644302,238.292618 150.310486,238.129028 
	C161.629333,237.732193 172.971481,238.012421 184.304153,237.984161 
	C185.713516,237.980652 187.122330,237.761414 189.501968,237.559982 
	C168.480240,207.375046 147.960403,177.910782 127.324867,148.280380 
	C146.277405,119.193306 165.227005,90.110718 184.846497,60.000011 
	C171.209808,60.000011 159.080017,60.125034 146.955811,59.919853 
	C143.549942,59.862213 141.469955,60.923527 139.676804,63.804588 
	C128.190613,82.259331 116.581200,100.637589 104.960251,119.008064 
	C103.100037,121.948715 100.978378,124.723976 98.977577,127.575691 
	C98.000000,106.896393 98.001091,86.754524 97.999390,66.612648 
	C97.998825,60.002922 97.995522,60.004032 91.163498,59.999729 
	C81.497375,59.993641 71.831253,59.985710 62.165134,59.978569 
	C62.165134,47.510098 62.165134,35.041626 62.165134,22.011234 
	C441.830719,22.011234 821.441711,22.011234 1201.499023,22.469193 
	C1200.169800,29.543783 1198.391846,36.159840 1196.618652,42.777119 
	C1189.685547,68.650818 1182.793213,94.535545 1175.809937,120.395699 
	C1169.679077,143.099472 1163.379395,165.757751 1157.281860,188.470398 
	C1152.806030,205.141998 1148.536865,221.868988 1144.064941,238.994904 
	C1158.425293,238.994904 1172.397461,239.073853 1186.365112,238.855316 
	C1187.572876,238.836426 1189.465454,237.051529 1189.830688,235.748123 
	C1193.531372,222.537628 1196.960083,209.251160 1200.504028,195.996399 
	C1207.422974,170.119186 1214.377808,144.251541 1221.297363,118.374474 
	C1228.215576,92.502533 1235.099365,66.621300 1242.067017,40.762707 
	C1242.252686,40.073536 1243.231934,39.598267 1243.841064,39.023243 
	C1243.894043,40.351803 1243.993286,41.680370 1243.993408,43.008945 
	C1244.000366,183.754471 1244.000000,324.500000 1244.000000,465.245514 
	C1244.000000,466.700012 1244.000000,468.154541 1244.000000,469.988312 
	C1136.718018,469.988312 1029.831543,469.988312 922.476318,469.453491 
	C922.005066,454.257477 922.000671,439.596252 922.000366,424.935059 
	C921.999390,381.450653 921.935120,337.966034 922.099426,294.482239 
	C922.116028,290.081482 920.982483,288.715118 916.531555,288.896729 
	C907.882385,289.249573 899.200195,289.226593 890.548584,288.904297 
	C886.233948,288.743591 884.858093,289.867493 884.891479,294.401855 
	C885.104309,323.389893 885.000000,352.380249 885.000000,381.369843 
	C885.000000,382.955963 885.000000,384.542084 885.000000,387.233032 
	C875.325623,376.202148 866.357239,366.113525 857.543030,355.891998 
	C846.078003,342.596436 834.754578,329.178894 823.333008,315.845795 
	C816.325256,307.665131 808.717041,299.931885 802.383911,291.263184 
	C798.001587,285.264740 793.115417,284.039673 786.000000,285.577881 
	C786.000000,289.257690 786.000000,292.876373 786.000000,296.495056 
	C786.000000,351.142120 786.025635,405.789215 785.942810,460.436157 
	C785.937256,464.109344 786.184143,466.308136 790.887207,466.109833 
	C799.867981,465.731140 808.884094,465.776367 817.869385,466.096863 
	C822.181274,466.250641 823.106384,464.702728 823.083008,460.680359 
	C822.924316,433.357727 823.000000,406.033783 823.000000,378.710236 
	C823.000000,376.977966 823.000000,375.245667 823.000000,372.810394 
	C824.477112,373.570160 825.164368,373.721527 825.542358,374.147430 
	C838.086060,388.280151 850.527405,402.504364 863.138733,416.576233 
	C876.203674,431.154114 889.474548,445.547241 902.547607,460.117889 
	C905.268311,463.150238 907.516541,466.606445 909.982544,469.867310 
M876.993225,204.493240 
	C878.338806,206.171631 879.558716,207.971741 881.049133,209.509735 
	C896.755798,225.718323 915.888977,235.593246 938.251038,237.794495 
	C960.479797,239.982635 981.647949,235.726685 1000.127991,222.257690 
	C1030.351562,200.229401 1043.739380,170.658890 1039.019653,133.353302 
	C1036.132324,110.530724 1025.785645,91.701797 1008.251709,76.657150 
	C987.226868,58.617168 962.701172,51.910385 935.768921,55.257557 
	C910.861511,58.353062 890.281189,70.379181 875.052979,90.568916 
	C859.552429,111.119530 853.614258,134.421463 857.218323,159.896393 
	C859.536987,176.286209 865.909058,191.106628 876.993225,204.493240 
M1188.841064,447.625580 
	C1178.850342,429.722870 1168.859619,411.820160 1158.736816,393.680603 
	C1162.362183,391.857178 1165.653931,390.788269 1168.217651,388.786743 
	C1173.131104,384.950745 1178.538818,381.247894 1182.138306,376.318970 
	C1194.673462,359.154053 1196.070190,340.110535 1188.635742,320.608582 
	C1180.856689,300.202240 1165.266602,289.996063 1146.996826,289.244476 
	C1122.883789,288.252533 1098.698975,289.055237 1074.545654,288.937836 
	C1071.154541,288.921387 1069.924683,289.810699 1069.931030,293.400177 
	C1070.030151,349.536743 1070.024170,405.673615 1069.941650,461.810242 
	C1069.936768,465.117096 1071.023926,466.122375 1074.257324,466.059723 
	C1083.249146,465.885468 1092.250732,465.838196 1101.239624,466.077728 
	C1104.937378,466.176300 1106.124634,465.098083 1106.081665,461.312073 
	C1105.892456,444.656403 1106.000000,427.997406 1106.000000,411.339600 
	C1106.000000,398.784271 1106.004517,398.662994 1118.592163,399.133453 
	C1120.439575,399.202515 1123.058716,400.602051 1123.903442,402.156281 
	C1133.425781,419.676300 1143.291626,437.056915 1151.721558,455.102661 
	C1155.777832,463.785522 1160.536377,467.158813 1170.030518,466.203674 
	C1179.329224,465.268250 1188.795654,466.000000 1199.305786,466.000000 
	C1195.546753,459.450165 1192.345825,453.872742 1188.841064,447.625580 
M551.493652,408.987732 
	C554.902649,415.462158 558.307129,421.938995 561.721680,428.410522 
	C567.851013,440.027283 573.935242,451.668549 580.194824,463.214783 
	C580.854187,464.430908 582.548523,465.853455 583.782593,465.872192 
	C596.559204,466.066284 609.340027,465.991516 623.150513,465.991516 
	C609.335327,441.392517 595.952576,417.563385 582.888611,394.301941 
	C588.991211,390.344940 595.577026,387.232178 600.711243,382.533386 
	C617.658997,367.023010 621.281067,338.762878 611.339294,317.668671 
	C603.293518,300.597321 589.846313,290.154266 571.204102,289.279358 
	C546.924805,288.139862 522.551392,289.051788 498.219147,288.940582 
	C494.942322,288.925629 493.938690,289.969757 493.943329,293.230896 
	C494.023438,349.396118 494.022308,405.561554 493.945068,461.726776 
	C493.940643,464.937317 494.843048,466.136444 498.177917,466.063110 
	C506.840210,465.872650 515.517456,465.778442 524.172546,466.091858 
	C528.605103,466.252350 530.193298,465.169312 530.119141,460.372803 
	C529.828003,441.544403 529.974182,422.708740 530.039551,403.876068 
	C530.046204,401.962738 529.034912,399.507538 532.565063,398.968018 
	C543.549561,397.289398 546.315552,398.582153 551.493652,408.987732 
M250.000000,419.500153 
	C250.000168,414.170868 250.175476,408.833740 249.937836,403.515076 
	C249.783783,400.067474 250.880035,398.860992 254.432892,398.928070 
	C265.087738,399.129303 275.761993,399.337158 286.404541,398.922729 
	C303.389740,398.261383 317.445374,391.263428 326.455170,376.668762 
	C338.167999,357.695557 338.965179,337.382782 329.932343,317.192444 
	C322.265991,300.056641 308.175873,290.095795 289.589294,289.261383 
	C265.821716,288.194397 241.969711,289.056732 218.154846,288.938171 
	C214.805008,288.921509 213.941864,290.104797 213.946152,293.289703 
	C214.021759,349.414154 214.032303,405.538818 213.928696,461.663177 
	C213.921921,465.335541 215.298157,466.122986 218.608231,466.059174 
	C227.598145,465.885925 236.597229,465.851196 245.585037,466.072662 
	C249.165085,466.160889 250.104538,464.881317 250.064972,461.468628 
	C249.906693,447.814026 249.999847,434.156555 250.000000,419.500153 
M456.496613,166.958862 
	C449.641602,150.045853 442.774963,133.137543 435.934601,116.218605 
	C428.036743,96.684113 420.211945,77.119652 412.178986,57.640972 
	C411.560577,56.141384 409.643463,54.466171 408.149170,54.273281 
	C407.036072,54.129585 405.029785,55.999901 404.446442,57.400299 
	C396.917999,75.472801 389.547028,93.611198 382.188629,111.754181 
	C368.782471,144.808411 355.400116,177.872299 342.033325,210.942474 
	C338.461639,219.779068 334.982239,228.652954 331.265503,238.000000 
	C342.534027,238.000000 353.018311,238.000000 363.502594,238.000000 
	C372.234955,238.000000 372.239899,238.002045 375.640991,229.751892 
	C376.336761,228.064163 377.223724,226.406754 377.599243,224.645126 
	C378.508698,220.378708 380.738007,218.796860 385.289886,218.889221 
	C399.947662,219.186646 414.615295,218.999939 429.279114,219.000000 
	C437.366638,219.000046 437.366669,219.000137 440.030304,226.625290 
	C444.003845,238.000015 444.003815,238.000015 456.085297,238.000000 
	C465.525177,238.000000 474.965088,238.000000 485.417450,238.000000 
	C475.655884,213.962006 466.252380,190.805664 456.496613,166.958862 
M347.994781,403.521973 
	C339.696350,424.084167 331.397949,444.646362 322.780121,466.000000 
	C334.553528,466.000000 345.510162,465.702667 356.439178,466.123291 
	C362.050415,466.339233 365.701874,465.298370 366.578400,459.067047 
	C366.916840,456.661011 368.483276,454.451538 369.053009,452.048828 
	C369.963928,448.207123 371.900726,446.817383 376.042114,446.889832 
	C391.703552,447.163818 407.375580,447.164917 423.037018,446.890991 
	C427.265594,446.817017 429.290924,448.022034 430.272644,452.169342 
	C431.105560,455.688019 433.025391,458.935120 434.112915,462.412262 
	C435.015259,465.297241 436.626373,466.117981 439.573517,466.069244 
	C450.236969,465.893036 460.905182,466.016235 471.571442,465.979767 
	C472.959381,465.975006 474.346436,465.697937 476.349792,465.480042 
	C473.100525,457.312683 470.160950,449.782349 467.116211,442.294739 
	C452.739380,406.939514 438.330078,371.597504 423.940094,336.247650 
	C416.994690,319.185913 410.103546,302.101868 403.053467,285.083618 
	C402.535583,283.833435 400.953644,282.279877 399.815094,282.237213 
	C398.641449,282.193237 396.782959,283.568237 396.289185,284.762695 
	C388.745819,303.009888 381.402802,321.339722 373.960968,339.629089 
	C365.392029,360.688446 356.771759,381.726898 347.994781,403.521973 
M1035.998291,362.734711 
	C1036.430054,359.421051 1034.551392,358.942535 1031.788208,358.961853 
	C1019.128174,359.050415 1006.465393,358.881012 993.807739,359.075043 
	C990.178284,359.130646 988.786743,358.219727 988.916687,354.358124 
	C989.191101,346.204590 989.231995,338.026062 988.903503,329.876526 
	C988.736023,325.721466 990.295166,324.877686 994.073730,324.925629 
	C1008.564514,325.109528 1023.060181,324.900604 1037.551270,325.070557 
	C1041.080444,325.111938 1042.145752,323.964233 1042.067749,320.500427 
	C1041.865479,311.509277 1041.868408,302.507629 1042.066772,293.516296 
	C1042.142578,290.075562 1041.118042,288.913391 1037.568481,288.930511 
	C1010.915222,289.059082 984.260742,289.045380 957.607239,288.942932 
	C954.300293,288.930237 952.921753,289.666870 952.928528,293.339050 
	C953.032227,349.478760 953.023071,405.618774 952.943909,461.758545 
	C952.939331,465.003418 953.915222,466.071899 957.205017,466.059418 
	C985.024658,465.953674 1012.845154,465.937317 1040.664551,466.073792 
	C1044.342773,466.091827 1045.124390,464.695648 1045.059082,461.387909 
	C1044.885132,452.562195 1044.786621,443.723389 1045.094482,434.904999 
	C1045.237549,430.805115 1043.784668,429.875549 1039.955200,429.922028 
	C1024.464966,430.110077 1008.970032,429.909668 993.479065,430.068359 
	C989.992859,430.104095 988.837036,429.038147 988.930969,425.530609 
	C989.149353,417.373688 989.176025,409.201447 988.922791,401.046539 
	C988.803650,397.209747 989.809143,395.813965 993.903442,395.904175 
	C1006.058411,396.171997 1018.230225,395.758057 1030.380371,396.119781 
	C1035.197144,396.263214 1036.245239,394.585480 1036.091187,390.168152 
	C1035.783691,381.349731 1036.000000,372.513092 1035.998291,362.734711 
M606.515686,72.934212 
	C607.933655,69.152229 609.351685,65.370255 610.986694,61.009407 
	C597.404785,61.009407 584.598877,60.920067 571.799072,61.158012 
	C570.617126,61.179985 568.904297,63.076164 568.397522,64.454803 
	C559.869751,87.654396 551.509094,110.915359 543.076660,134.150101 
	C540.567200,141.064835 537.951416,147.940994 535.036865,155.768097 
	C533.740662,153.774628 532.837280,152.799133 532.401489,151.646820 
	C529.878662,144.976257 527.486816,138.256348 525.012146,131.567383 
	C517.587708,111.499733 510.281799,91.386696 502.654633,71.396301 
	C498.650208,60.900967 498.390625,61.000000 486.902649,61.000000 
	C477.466766,60.999996 468.030884,61.000000 458.124481,61.000000 
	C458.699707,63.096924 458.941010,64.556999 459.490753,65.889870 
	C464.487854,78.005226 469.627441,90.062386 474.558167,102.204460 
	C493.403992,148.613190 512.171936,195.053543 531.069397,241.441162 
	C531.643677,242.850800 533.326111,243.809006 534.491943,244.977707 
	C535.533997,243.922165 537.029724,243.053207 537.551819,241.783798 
	C551.431885,208.036224 565.226562,174.253510 579.003113,140.463440 
	C588.083008,118.192818 597.112122,95.901505 606.515686,72.934212 
M703.984985,70.481621 
	C721.755554,98.504402 739.577820,126.494743 757.207764,154.605698 
	C758.778137,157.109665 759.853210,160.390350 759.880493,163.322159 
	C760.095520,186.482300 760.101440,209.646179 759.907227,232.806686 
	C759.871948,237.011047 761.130615,238.231949 765.258484,238.088547 
	C773.746643,237.793701 782.259338,237.792511 790.747314,238.088898 
	C794.883545,238.233353 796.126953,236.996811 796.092346,232.800858 
	C795.899719,209.473663 795.959229,186.143875 796.065613,162.815582 
	C796.075745,160.588913 796.490601,158.061798 797.597656,156.196564 
	C801.659851,149.352448 806.091858,142.727768 810.387756,136.022446 
	C824.172119,114.506981 837.973816,93.002533 851.725891,71.466415 
	C853.783936,68.243423 855.611755,64.873413 857.878784,61.003555 
	C843.227539,61.003555 829.572144,60.940517 815.919312,61.102161 
	C814.570679,61.118130 812.677490,62.169651 811.985229,63.314075 
	C805.114441,74.672173 798.471313,86.167679 791.705872,97.590034 
	C787.280579,105.061401 782.760010,112.476318 778.044250,120.311813 
	C776.699707,118.395096 775.756897,117.229401 775.004578,115.951523 
	C764.902588,98.791443 754.905945,81.568169 744.622620,64.517693 
	C743.597778,62.818508 740.891541,61.205231 738.924377,61.154530 
	C726.934692,60.845531 714.932983,60.985558 702.935486,61.022942 
	C701.729492,61.026699 700.524414,61.345642 698.805725,61.591808 
	C700.602661,64.758560 702.065186,67.335960 703.984985,70.481621 
M725.556946,325.000000 
	C735.889099,324.999817 746.223755,324.869476 756.551941,325.071167 
	C760.089294,325.140198 761.143127,323.957886 761.067383,320.496490 
	C760.866943,311.335358 760.906067,302.165497 761.051514,293.002258 
	C761.099365,289.988007 760.131287,288.942444 757.052490,288.948822 
	C718.390869,289.028931 679.728943,289.024200 641.067261,288.955475 
	C638.139587,288.950256 636.887695,289.718842 636.943115,292.882660 
	C637.106384,302.211945 637.127319,311.548523 636.934814,320.876709 
	C636.864563,324.278625 638.178040,325.097260 641.327576,325.056152 
	C652.490967,324.910431 663.668884,325.298553 674.817505,324.867859 
	C680.016968,324.667023 681.138611,326.287506 681.115417,331.271454 
	C680.915039,374.431732 681.053650,417.593536 680.913513,460.754303 
	C680.900085,464.881226 682.002319,466.248566 686.206482,466.091644 
	C694.527161,465.780975 702.876953,465.765167 711.196228,466.094391 
	C715.673462,466.271545 717.140930,465.094940 717.112854,460.350983 
	C716.904541,425.190002 717.000000,390.027191 717.000000,354.864960 
	C717.000000,346.699310 717.186707,338.527588 716.919922,330.370667 
	C716.790039,326.401611 717.713501,324.282990 722.083435,324.981506 
	C722.895874,325.111389 723.746887,325.000031 725.556946,325.000000 
M250.000000,109.500000 
	C249.999847,94.838860 249.910019,80.176758 250.065979,65.517281 
	C250.102524,62.082275 249.128204,60.841675 245.568008,60.928196 
	C236.576675,61.146687 227.574097,61.119465 218.581085,60.938732 
	C215.231461,60.871414 213.922836,61.729004 213.929459,65.367081 
	C214.031693,121.512566 214.024231,177.658310 213.942032,233.803864 
	C213.937210,237.104156 215.016098,238.069275 218.251205,238.057465 
	C246.073776,237.955826 273.897156,237.935272 301.719421,238.074768 
	C305.464050,238.093552 306.113647,236.569931 306.054901,233.332428 
	C305.894745,224.505310 305.771942,215.664932 306.099152,206.847031 
	C306.255066,202.646133 304.626007,201.887222 300.896149,201.929169 
	C285.737091,202.099640 270.571472,201.819427 255.416077,202.110443 
	C250.893463,202.197266 249.875549,200.786865 249.903625,196.467224 
	C250.089874,167.812485 250.000000,139.155945 250.000000,109.500000 
M1088.539307,207.952271 
	C1085.743286,218.159973 1082.947266,228.367691 1080.037476,238.990845 
	C1094.549927,238.990845 1108.693115,239.043289 1122.833862,238.884445 
	C1123.886597,238.872620 1125.567139,237.531067 1125.864380,236.494629 
	C1128.386719,227.701797 1130.649658,218.834641 1133.002075,209.992920 
	C1139.009155,187.415283 1144.977661,164.827316 1151.045166,142.265945 
	C1157.578491,117.971283 1164.208618,93.702614 1170.791870,69.421356 
	C1171.667358,66.192162 1170.451050,64.612244 1167.114014,63.933189 
	C1162.641968,63.023174 1158.280640,61.579269 1153.855957,60.424820 
	C1145.882935,58.344532 1137.898193,56.308975 1129.916016,54.254131 
	C1129.156738,56.169678 1128.474487,57.486130 1128.103760,58.885139 
	C1118.942017,93.471642 1109.814819,128.067322 1100.677856,162.660431 
	C1096.756226,177.508316 1092.826538,192.354080 1088.539307,207.952271 
M637.000000,102.500000 
	C637.000000,145.969116 637.038574,189.438309 636.931885,232.907166 
	C636.922668,236.645721 637.667786,238.253174 641.854431,238.098709 
	C650.669495,237.773438 659.506775,237.895294 668.330994,238.054596 
	C671.563660,238.112961 673.079468,237.468933 673.072388,233.723801 
	C672.966614,177.597183 672.967896,121.470253 673.071167,65.343636 
	C673.077942,61.678909 671.716980,60.875874 668.398254,60.940430 
	C659.408081,61.115314 650.408569,61.148197 641.420349,60.927662 
	C637.847107,60.839989 636.885803,62.105286 636.934387,65.526482 
	C637.104614,77.515549 637.000183,89.508514 637.000000,102.500000 
z"/>
<path fill="#181A1C" opacity="1.000000" stroke="none" 
	d="
M910.439514,469.941772 
	C907.516541,466.606445 905.268311,463.150238 902.547607,460.117889 
	C889.474548,445.547241 876.203674,431.154114 863.138733,416.576233 
	C850.527405,402.504364 838.086060,388.280151 825.542358,374.147430 
	C825.164368,373.721527 824.477112,373.570160 823.000000,372.810394 
	C823.000000,375.245667 823.000000,376.977966 823.000000,378.710236 
	C823.000000,406.033783 822.924316,433.357727 823.083008,460.680359 
	C823.106384,464.702728 822.181274,466.250641 817.869385,466.096863 
	C808.884094,465.776367 799.867981,465.731140 790.887207,466.109833 
	C786.184143,466.308136 785.937256,464.109344 785.942810,460.436157 
	C786.025635,405.789215 786.000000,351.142120 786.000000,296.495056 
	C786.000000,292.876373 786.000000,289.257690 786.000000,285.577881 
	C793.115417,284.039673 798.001587,285.264740 802.383911,291.263184 
	C808.717041,299.931885 816.325256,307.665131 823.333008,315.845795 
	C834.754578,329.178894 846.078003,342.596436 857.543030,355.891998 
	C866.357239,366.113525 875.325623,376.202148 885.000000,387.233032 
	C885.000000,384.542084 885.000000,382.955963 885.000000,381.369843 
	C885.000000,352.380249 885.104309,323.389893 884.891479,294.401855 
	C884.858093,289.867493 886.233948,288.743591 890.548584,288.904297 
	C899.200195,289.226593 907.882385,289.249573 916.531555,288.896729 
	C920.982483,288.715118 922.116028,290.081482 922.099426,294.482239 
	C921.935120,337.966034 921.999390,381.450653 922.000366,424.935059 
	C922.000671,439.596252 922.005066,454.257477 922.014648,469.376770 
	C918.313232,469.895325 914.604858,469.955780 910.439514,469.941772 
z"/>
<path fill="#181A1C" opacity="1.000000" stroke="none" 
	d="
M62.089577,60.443199 
	C71.831253,59.985710 81.497375,59.993641 91.163498,59.999729 
	C97.995522,60.004032 97.998825,60.002922 97.999390,66.612648 
	C98.001091,86.754524 98.000000,106.896393 98.977577,127.575691 
	C100.978378,124.723976 103.100037,121.948715 104.960251,119.008064 
	C116.581200,100.637589 128.190613,82.259331 139.676804,63.804588 
	C141.469955,60.923527 143.549942,59.862213 146.955811,59.919853 
	C159.080017,60.125034 171.209808,60.000011 184.846497,60.000011 
	C165.227005,90.110718 146.277405,119.193306 127.324867,148.280380 
	C147.960403,177.910782 168.480240,207.375046 189.501968,237.559982 
	C187.122330,237.761414 185.713516,237.980652 184.304153,237.984161 
	C172.971481,238.012421 161.629333,237.732193 150.310486,238.129028 
	C145.644302,238.292618 143.244751,236.479385 140.800049,232.810349 
	C127.918953,213.478104 114.762489,194.329285 101.687820,175.126205 
	C100.983231,174.091354 100.153946,173.141418 98.375992,170.860352 
	C98.193367,174.072784 98.014496,175.773254 98.012634,177.473923 
	C97.992409,195.972931 97.901932,214.472931 98.079659,232.970261 
	C98.116745,236.830231 97.144615,238.209213 93.076942,238.093597 
	C83.085655,237.809586 73.080734,238.005081 62.623211,238.014679 
	C62.110081,224.221542 62.012657,210.421463 62.007771,196.621338 
	C61.991745,151.383499 62.009350,106.145668 62.089577,60.443199 
z"/>
<path fill="#23AF6A" opacity="1.000000" stroke="none" 
	d="
M1243.908936,38.596455 
	C1243.231934,39.598267 1242.252686,40.073536 1242.067017,40.762707 
	C1235.099365,66.621300 1228.215576,92.502533 1221.297363,118.374474 
	C1214.377808,144.251541 1207.422974,170.119186 1200.504028,195.996399 
	C1196.960083,209.251160 1193.531372,222.537628 1189.830688,235.748123 
	C1189.465454,237.051529 1187.572876,238.836426 1186.365112,238.855316 
	C1172.397461,239.073853 1158.425293,238.994904 1144.064941,238.994904 
	C1148.536865,221.868988 1152.806030,205.141998 1157.281860,188.470398 
	C1163.379395,165.757751 1169.679077,143.099472 1175.809937,120.395699 
	C1182.793213,94.535545 1189.685547,68.650818 1196.618652,42.777119 
	C1198.391846,36.159840 1200.169800,29.543783 1201.961060,22.543053 
	C1202.435303,22.114954 1202.894043,22.070957 1203.907959,22.404085 
	C1205.581909,22.979420 1206.721558,23.098248 1207.816040,23.388010 
	C1219.828613,26.568672 1231.834106,29.775959 1243.841553,32.976036 
	C1243.886719,34.707245 1243.931885,36.438450 1243.908936,38.596455 
z"/>
<path fill="#000000" opacity="1.000000" stroke="none" 
	d="
M1243.915039,32.517593 
	C1231.834106,29.775959 1219.828613,26.568672 1207.816040,23.388010 
	C1206.721558,23.098248 1205.581909,22.979420 1204.249512,22.467854 
	C1217.204712,22.154497 1230.373535,22.154497 1243.988647,22.154497 
	C1243.988647,25.560406 1243.988647,28.809780 1243.915039,32.517593 
z"/>
<path fill="#181A1C" opacity="1.000000" stroke="none" 
	d="
M876.742188,204.239304 
	C865.909058,191.106628 859.536987,176.286209 857.218323,159.896393 
	C853.614258,134.421463 859.552429,111.119530 875.052979,90.568916 
	C890.281189,70.379181 910.861511,58.353062 935.768921,55.257557 
	C962.701172,51.910385 987.226868,58.617168 1008.251709,76.657150 
	C1025.785645,91.701797 1036.132324,110.530724 1039.019653,133.353302 
	C1043.739380,170.658890 1030.351562,200.229401 1000.127991,222.257690 
	C981.647949,235.726685 960.479797,239.982635 938.251038,237.794495 
	C915.888977,235.593246 896.755798,225.718323 881.049133,209.509735 
	C879.558716,207.971741 878.338806,206.171631 876.742188,204.239304 
M1004.000854,154.422318 
	C1004.333862,151.801041 1005.032654,149.167160 1004.942810,146.560455 
	C1004.119507,122.679565 990.317444,100.840385 966.058655,92.943199 
	C944.143799,85.809044 924.344360,90.693764 908.252136,106.605339 
	C894.355835,120.345528 889.240601,137.753021 892.976990,157.358521 
	C897.754578,182.427139 920.015991,202.116608 946.304993,202.898544 
	C974.980469,203.751480 998.391052,184.059723 1004.000854,154.422318 
z"/>
<path fill="#181A1C" opacity="1.000000" stroke="none" 
	d="
M1188.992920,447.960449 
	C1192.345825,453.872742 1195.546753,459.450165 1199.305786,466.000000 
	C1188.795654,466.000000 1179.329224,465.268250 1170.030518,466.203674 
	C1160.536377,467.158813 1155.777832,463.785522 1151.721558,455.102661 
	C1143.291626,437.056915 1133.425781,419.676300 1123.903442,402.156281 
	C1123.058716,400.602051 1120.439575,399.202515 1118.592163,399.133453 
	C1106.004517,398.662994 1106.000000,398.784271 1106.000000,411.339600 
	C1106.000000,427.997406 1105.892456,444.656403 1106.081665,461.312073 
	C1106.124634,465.098083 1104.937378,466.176300 1101.239624,466.077728 
	C1092.250732,465.838196 1083.249146,465.885468 1074.257324,466.059723 
	C1071.023926,466.122375 1069.936768,465.117096 1069.941650,461.810242 
	C1070.024170,405.673615 1070.030151,349.536743 1069.931030,293.400177 
	C1069.924683,289.810699 1071.154541,288.921387 1074.545654,288.937836 
	C1098.698975,289.055237 1122.883789,288.252533 1146.996826,289.244476 
	C1165.266602,289.996063 1180.856689,300.202240 1188.635742,320.608582 
	C1196.070190,340.110535 1194.673462,359.154053 1182.138306,376.318970 
	C1178.538818,381.247894 1173.131104,384.950745 1168.217651,388.786743 
	C1165.653931,390.788269 1162.362183,391.857178 1158.736816,393.680603 
	C1168.859619,411.820160 1178.850342,429.722870 1188.992920,447.960449 
M1147.887329,359.487091 
	C1149.785522,356.248566 1152.403442,353.225708 1153.450439,349.732117 
	C1156.958130,338.027588 1148.957886,325.402252 1137.968018,325.063477 
	C1128.494629,324.771484 1119.004395,325.055023 1109.522827,324.970062 
	C1107.003052,324.947510 1105.943604,325.777161 1105.966553,328.416626 
	C1106.059204,339.062775 1106.073975,349.710999 1105.956299,360.356659 
	C1105.924438,363.242462 1107.067261,364.081390 1109.795532,364.040558 
	C1117.779053,363.921112 1125.804077,364.467834 1133.735718,363.815796 
	C1138.319336,363.438995 1142.753906,361.252289 1147.887329,359.487091 
z"/>
<path fill="#181A1C" opacity="1.000000" stroke="none" 
	d="
M551.318298,408.658020 
	C546.315552,398.582153 543.549561,397.289398 532.565063,398.968018 
	C529.034912,399.507538 530.046204,401.962738 530.039551,403.876068 
	C529.974182,422.708740 529.828003,441.544403 530.119141,460.372803 
	C530.193298,465.169312 528.605103,466.252350 524.172546,466.091858 
	C515.517456,465.778442 506.840210,465.872650 498.177917,466.063110 
	C494.843048,466.136444 493.940643,464.937317 493.945068,461.726776 
	C494.022308,405.561554 494.023438,349.396118 493.943329,293.230896 
	C493.938690,289.969757 494.942322,288.925629 498.219147,288.940582 
	C522.551392,289.051788 546.924805,288.139862 571.204102,289.279358 
	C589.846313,290.154266 603.293518,300.597321 611.339294,317.668671 
	C621.281067,338.762878 617.658997,367.023010 600.711243,382.533386 
	C595.577026,387.232178 588.991211,390.344940 582.888611,394.301941 
	C595.952576,417.563385 609.335327,441.392517 623.150513,465.991516 
	C609.340027,465.991516 596.559204,466.066284 583.782593,465.872192 
	C582.548523,465.853455 580.854187,464.430908 580.194824,463.214783 
	C573.935242,451.668549 567.851013,440.027283 561.721680,428.410522 
	C558.307129,421.938995 554.902649,415.462158 551.318298,408.658020 
M530.000000,329.683624 
	C530.000549,339.839630 530.060974,349.996216 529.961243,360.151245 
	C529.934937,362.829102 530.649902,364.094177 533.595337,364.044281 
	C541.751160,363.906036 549.931458,364.354706 558.062622,363.886383 
	C565.106201,363.480682 571.673218,361.691772 575.686890,354.693878 
	C582.667358,342.523315 574.794800,325.400299 561.673889,325.050110 
	C552.356995,324.801453 543.027100,325.076752 533.705139,324.956787 
	C530.880249,324.920441 529.679138,325.948334 530.000000,329.683624 
z"/>
<path fill="#181A1C" opacity="1.000000" stroke="none" 
	d="
M250.000000,420.000122 
	C249.999847,434.156555 249.906693,447.814026 250.064972,461.468628 
	C250.104538,464.881317 249.165085,466.160889 245.585037,466.072662 
	C236.597229,465.851196 227.598145,465.885925 218.608231,466.059174 
	C215.298157,466.122986 213.921921,465.335541 213.928696,461.663177 
	C214.032303,405.538818 214.021759,349.414154 213.946152,293.289703 
	C213.941864,290.104797 214.805008,288.921509 218.154846,288.938171 
	C241.969711,289.056732 265.821716,288.194397 289.589294,289.261383 
	C308.175873,290.095795 322.265991,300.056641 329.932343,317.192444 
	C338.965179,337.382782 338.167999,357.695557 326.455170,376.668762 
	C317.445374,391.263428 303.389740,398.261383 286.404541,398.922729 
	C275.761993,399.337158 265.087738,399.129303 254.432892,398.928070 
	C250.880035,398.860992 249.783783,400.067474 249.937836,403.515076 
	C250.175476,408.833740 250.000168,414.170868 250.000000,420.000122 
M254.683578,363.999786 
	C262.165344,363.999664 269.648621,364.095490 277.128479,363.976990 
	C288.407990,363.798370 294.995056,359.068756 297.486725,348.834320 
	C299.972412,338.624420 294.092102,325.532806 281.980835,325.074646 
	C272.517487,324.716644 263.029388,325.051910 253.553162,324.971283 
	C251.069626,324.950165 249.943512,325.713379 249.966949,328.382660 
	C250.061783,339.188812 250.061752,349.996704 249.971359,360.802917 
	C249.947708,363.632904 251.429031,364.175934 254.683578,363.999786 
z"/>
<path fill="#181A1C" opacity="1.000000" stroke="none" 
	d="
M456.672729,167.304092 
	C466.252380,190.805664 475.655884,213.962006 485.417450,238.000000 
	C474.965088,238.000000 465.525177,238.000000 456.085297,238.000000 
	C444.003815,238.000015 444.003845,238.000015 440.030304,226.625290 
	C437.366669,219.000137 437.366638,219.000046 429.279114,219.000000 
	C414.615295,218.999939 399.947662,219.186646 385.289886,218.889221 
	C380.738007,218.796860 378.508698,220.378708 377.599243,224.645126 
	C377.223724,226.406754 376.336761,228.064163 375.640991,229.751892 
	C372.239899,238.002045 372.234955,238.000000 363.502594,238.000000 
	C353.018311,238.000000 342.534027,238.000000 331.265503,238.000000 
	C334.982239,228.652954 338.461639,219.779068 342.033325,210.942474 
	C355.400116,177.872299 368.782471,144.808411 382.188629,111.754181 
	C389.547028,93.611198 396.917999,75.472801 404.446442,57.400299 
	C405.029785,55.999901 407.036072,54.129585 408.149170,54.273281 
	C409.643463,54.466171 411.560577,56.141384 412.178986,57.640972 
	C420.211945,77.119652 428.036743,96.684113 435.934601,116.218605 
	C442.774963,133.137543 449.641602,150.045853 456.672729,167.304092 
M402.490540,159.055176 
	C399.515869,167.560974 396.541168,176.066757 393.520844,184.703033 
	C403.886993,184.703033 413.640289,184.703033 423.923523,184.703033 
	C418.992096,170.641968 414.213440,157.016495 409.434814,143.391037 
	C409.017670,143.438660 408.600555,143.486282 408.183441,143.533920 
	C406.404480,148.474487 404.625519,153.415054 402.490540,159.055176 
z"/>
<path fill="#181A1C" opacity="1.000000" stroke="none" 
	d="
M348.084290,403.148193 
	C356.771759,381.726898 365.392029,360.688446 373.960968,339.629089 
	C381.402802,321.339722 388.745819,303.009888 396.289185,284.762695 
	C396.782959,283.568237 398.641449,282.193237 399.815094,282.237213 
	C400.953644,282.279877 402.535583,283.833435 403.053467,285.083618 
	C410.103546,302.101868 416.994690,319.185913 423.940094,336.247650 
	C438.330078,371.597504 452.739380,406.939514 467.116211,442.294739 
	C470.160950,449.782349 473.100525,457.312683 476.349792,465.480042 
	C474.346436,465.697937 472.959381,465.975006 471.571442,465.979767 
	C460.905182,466.016235 450.236969,465.893036 439.573517,466.069244 
	C436.626373,466.117981 435.015259,465.297241 434.112915,462.412262 
	C433.025391,458.935120 431.105560,455.688019 430.272644,452.169342 
	C429.290924,448.022034 427.265594,446.817017 423.037018,446.890991 
	C407.375580,447.164917 391.703552,447.163818 376.042114,446.889832 
	C371.900726,446.817383 369.963928,448.207123 369.053009,452.048828 
	C368.483276,454.451538 366.916840,456.661011 366.578400,459.067047 
	C365.701874,465.298370 362.050415,466.339233 356.439178,466.123291 
	C345.510162,465.702667 334.553528,466.000000 322.780121,466.000000 
	C331.397949,444.646362 339.696350,424.084167 348.084290,403.148193 
M391.154938,393.638275 
	C388.919250,399.935455 386.683563,406.232666 384.385223,412.706360 
	C394.780853,412.706360 404.483215,412.706360 414.810577,412.706360 
	C409.975250,398.837921 405.301239,385.432159 400.627228,372.026428 
	C400.068298,372.063690 399.509338,372.100983 398.950378,372.138245 
	C396.470764,379.072296 393.991150,386.006317 391.154938,393.638275 
z"/>
<path fill="#181A1C" opacity="1.000000" stroke="none" 
	d="
M1035.999146,363.209351 
	C1036.000000,372.513092 1035.783691,381.349731 1036.091187,390.168152 
	C1036.245239,394.585480 1035.197144,396.263214 1030.380371,396.119781 
	C1018.230225,395.758057 1006.058411,396.171997 993.903442,395.904175 
	C989.809143,395.813965 988.803650,397.209747 988.922791,401.046539 
	C989.176025,409.201447 989.149353,417.373688 988.930969,425.530609 
	C988.837036,429.038147 989.992859,430.104095 993.479065,430.068359 
	C1008.970032,429.909668 1024.464966,430.110077 1039.955200,429.922028 
	C1043.784668,429.875549 1045.237549,430.805115 1045.094482,434.904999 
	C1044.786621,443.723389 1044.885132,452.562195 1045.059082,461.387909 
	C1045.124390,464.695648 1044.342773,466.091827 1040.664551,466.073792 
	C1012.845154,465.937317 985.024658,465.953674 957.205017,466.059418 
	C953.915222,466.071899 952.939331,465.003418 952.943909,461.758545 
	C953.023071,405.618774 953.032227,349.478760 952.928528,293.339050 
	C952.921753,289.666870 954.300293,288.930237 957.607239,288.942932 
	C984.260742,289.045380 1010.915222,289.059082 1037.568481,288.930511 
	C1041.118042,288.913391 1042.142578,290.075562 1042.066772,293.516296 
	C1041.868408,302.507629 1041.865479,311.509277 1042.067749,320.500427 
	C1042.145752,323.964233 1041.080444,325.111938 1037.551270,325.070557 
	C1023.060181,324.900604 1008.564514,325.109528 994.073730,324.925629 
	C990.295166,324.877686 988.736023,325.721466 988.903503,329.876526 
	C989.231995,338.026062 989.191101,346.204590 988.916687,354.358124 
	C988.786743,358.219727 990.178284,359.130646 993.807739,359.075043 
	C1006.465393,358.881012 1019.128174,359.050415 1031.788208,358.961853 
	C1034.551392,358.942535 1036.430054,359.421051 1035.999146,363.209351 
z"/>
<path fill="#181A1C" opacity="1.000000" stroke="none" 
	d="
M606.339844,73.276833 
	C597.112122,95.901505 588.083008,118.192818 579.003113,140.463440 
	C565.226562,174.253510 551.431885,208.036224 537.551819,241.783798 
	C537.029724,243.053207 535.533997,243.922165 534.491943,244.977692 
	C533.326111,243.809006 531.643677,242.850800 531.069397,241.441162 
	C512.171936,195.053543 493.403992,148.613190 474.558167,102.204460 
	C469.627441,90.062386 464.487854,78.005226 459.490753,65.889870 
	C458.941010,64.556999 458.699707,63.096924 458.124481,61.000000 
	C468.030884,61.000000 477.466766,60.999996 486.902649,61.000000 
	C498.390625,61.000000 498.650208,60.900967 502.654633,71.396301 
	C510.281799,91.386696 517.587708,111.499733 525.012146,131.567383 
	C527.486816,138.256348 529.878662,144.976257 532.401489,151.646820 
	C532.837280,152.799133 533.740662,153.774628 535.036865,155.768097 
	C537.951416,147.940994 540.567200,141.064835 543.076660,134.150101 
	C551.509094,110.915359 559.869751,87.654396 568.397522,64.454803 
	C568.904297,63.076164 570.617126,61.179985 571.799072,61.158012 
	C584.598877,60.920067 597.404785,61.009407 610.986694,61.009407 
	C609.351685,65.370255 607.933655,69.152229 606.339844,73.276833 
z"/>
<path fill="#181A1C" opacity="1.000000" stroke="none" 
	d="
M703.756348,70.197495 
	C702.065186,67.335960 700.602661,64.758560 698.805725,61.591808 
	C700.524414,61.345642 701.729492,61.026699 702.935486,61.022942 
	C714.932983,60.985558 726.934692,60.845531 738.924377,61.154530 
	C740.891541,61.205231 743.597778,62.818508 744.622620,64.517693 
	C754.905945,81.568169 764.902588,98.791443 775.004578,115.951523 
	C775.756897,117.229401 776.699707,118.395096 778.044250,120.311813 
	C782.760010,112.476318 787.280579,105.061401 791.705872,97.590034 
	C798.471313,86.167679 805.114441,74.672173 811.985229,63.314075 
	C812.677490,62.169651 814.570679,61.118130 815.919312,61.102161 
	C829.572144,60.940517 843.227539,61.003555 857.878784,61.003555 
	C855.611755,64.873413 853.783936,68.243423 851.725891,71.466415 
	C837.973816,93.002533 824.172119,114.506981 810.387756,136.022446 
	C806.091858,142.727768 801.659851,149.352448 797.597656,156.196564 
	C796.490601,158.061798 796.075745,160.588913 796.065613,162.815582 
	C795.959229,186.143875 795.899719,209.473663 796.092346,232.800858 
	C796.126953,236.996811 794.883545,238.233353 790.747314,238.088898 
	C782.259338,237.792511 773.746643,237.793701 765.258484,238.088547 
	C761.130615,238.231949 759.871948,237.011047 759.907227,232.806686 
	C760.101440,209.646179 760.095520,186.482300 759.880493,163.322159 
	C759.853210,160.390350 758.778137,157.109665 757.207764,154.605698 
	C739.577820,126.494743 721.755554,98.504402 703.756348,70.197495 
z"/>
<path fill="#181A1C" opacity="1.000000" stroke="none" 
	d="
M725.068542,325.000000 
	C723.746887,325.000031 722.895874,325.111389 722.083435,324.981506 
	C717.713501,324.282990 716.790039,326.401611 716.919922,330.370667 
	C717.186707,338.527588 717.000000,346.699310 717.000000,354.864960 
	C717.000000,390.027191 716.904541,425.190002 717.112854,460.350983 
	C717.140930,465.094940 715.673462,466.271545 711.196228,466.094391 
	C702.876953,465.765167 694.527161,465.780975 686.206482,466.091644 
	C682.002319,466.248566 680.900085,464.881226 680.913513,460.754303 
	C681.053650,417.593536 680.915039,374.431732 681.115417,331.271454 
	C681.138611,326.287506 680.016968,324.667023 674.817505,324.867859 
	C663.668884,325.298553 652.490967,324.910431 641.327576,325.056152 
	C638.178040,325.097260 636.864563,324.278625 636.934814,320.876709 
	C637.127319,311.548523 637.106384,302.211945 636.943115,292.882660 
	C636.887695,289.718842 638.139587,288.950256 641.067261,288.955475 
	C679.728943,289.024200 718.390869,289.028931 757.052490,288.948822 
	C760.131287,288.942444 761.099365,289.988007 761.051514,293.002258 
	C760.906067,302.165497 760.866943,311.335358 761.067383,320.496490 
	C761.143127,323.957886 760.089294,325.140198 756.551941,325.071167 
	C746.223755,324.869476 735.889099,324.999817 725.068542,325.000000 
z"/>
<path fill="#181A1C" opacity="1.000000" stroke="none" 
	d="
M250.000000,110.000000 
	C250.000000,139.155945 250.089874,167.812485 249.903625,196.467224 
	C249.875549,200.786865 250.893463,202.197266 255.416077,202.110443 
	C270.571472,201.819427 285.737091,202.099640 300.896149,201.929169 
	C304.626007,201.887222 306.255066,202.646133 306.099152,206.847031 
	C305.771942,215.664932 305.894745,224.505310 306.054901,233.332428 
	C306.113647,236.569931 305.464050,238.093552 301.719421,238.074768 
	C273.897156,237.935272 246.073776,237.955826 218.251205,238.057465 
	C215.016098,238.069275 213.937210,237.104156 213.942032,233.803864 
	C214.024231,177.658310 214.031693,121.512566 213.929459,65.367081 
	C213.922836,61.729004 215.231461,60.871414 218.581085,60.938732 
	C227.574097,61.119465 236.576675,61.146687 245.568008,60.928196 
	C249.128204,60.841675 250.102524,62.082275 250.065979,65.517281 
	C249.910019,80.176758 249.999847,94.838860 250.000000,110.000000 
z"/>
<path fill="#23AF6A" opacity="1.000000" stroke="none" 
	d="
M1088.719971,207.576538 
	C1092.826538,192.354080 1096.756226,177.508316 1100.677856,162.660431 
	C1109.814819,128.067322 1118.942017,93.471642 1128.103760,58.885139 
	C1128.474487,57.486130 1129.156738,56.169678 1129.916016,54.254131 
	C1137.898193,56.308975 1145.882935,58.344532 1153.855957,60.424820 
	C1158.280640,61.579269 1162.641968,63.023174 1167.114014,63.933189 
	C1170.451050,64.612244 1171.667358,66.192162 1170.791870,69.421356 
	C1164.208618,93.702614 1157.578491,117.971283 1151.045166,142.265945 
	C1144.977661,164.827316 1139.009155,187.415283 1133.002075,209.992920 
	C1130.649658,218.834641 1128.386719,227.701797 1125.864380,236.494629 
	C1125.567139,237.531067 1123.886597,238.872620 1122.833862,238.884445 
	C1108.693115,239.043289 1094.549927,238.990845 1080.037476,238.990845 
	C1082.947266,228.367691 1085.743286,218.159973 1088.719971,207.576538 
z"/>
<path fill="#181A1C" opacity="1.000000" stroke="none" 
	d="
M637.000000,102.000000 
	C637.000183,89.508514 637.104614,77.515549 636.934387,65.526482 
	C636.885803,62.105286 637.847107,60.839989 641.420349,60.927662 
	C650.408569,61.148197 659.408081,61.115314 668.398254,60.940430 
	C671.716980,60.875874 673.077942,61.678909 673.071167,65.343636 
	C672.967896,121.470253 672.966614,177.597183 673.072388,233.723801 
	C673.079468,237.468933 671.563660,238.112961 668.330994,238.054596 
	C659.506775,237.895294 650.669495,237.773438 641.854431,238.098709 
	C637.667786,238.253174 636.922668,236.645721 636.931885,232.907166 
	C637.038574,189.438309 637.000000,145.969116 637.000000,102.000000 
z"/>
<path fill="#000000" opacity="1.000000" stroke="none" 
	d="
M1003.997437,154.860321 
	C998.391052,184.059723 974.980469,203.751480 946.304993,202.898544 
	C920.015991,202.116608 897.754578,182.427139 892.976990,157.358521 
	C889.240601,137.753021 894.355835,120.345528 908.252136,106.605339 
	C924.344360,90.693764 944.143799,85.809044 966.058655,92.943199 
	C990.317444,100.840385 1004.119507,122.679565 1004.942810,146.560455 
	C1005.032654,149.167160 1004.333862,151.801041 1003.997437,154.860321 
z"/>
<path fill="#000000" opacity="1.000000" stroke="none" 
	d="
M1147.571533,359.683624 
	C1142.753906,361.252289 1138.319336,363.438995 1133.735718,363.815796 
	C1125.804077,364.467834 1117.779053,363.921112 1109.795532,364.040558 
	C1107.067261,364.081390 1105.924438,363.242462 1105.956299,360.356659 
	C1106.073975,349.710999 1106.059204,339.062775 1105.966553,328.416626 
	C1105.943604,325.777161 1107.003052,324.947510 1109.522827,324.970062 
	C1119.004395,325.055023 1128.494629,324.771484 1137.968018,325.063477 
	C1148.957886,325.402252 1156.958130,338.027588 1153.450439,349.732117 
	C1152.403442,353.225708 1149.785522,356.248566 1147.571533,359.683624 
z"/>
<path fill="#000000" opacity="1.000000" stroke="none" 
	d="
M530.000854,329.210205 
	C529.679138,325.948334 530.880249,324.920441 533.705139,324.956787 
	C543.027100,325.076752 552.356995,324.801453 561.673889,325.050110 
	C574.794800,325.400299 582.667358,342.523315 575.686890,354.693878 
	C571.673218,361.691772 565.106201,363.480682 558.062622,363.886383 
	C549.931458,364.354706 541.751160,363.906036 533.595337,364.044281 
	C530.649902,364.094177 529.934937,362.829102 529.961243,360.151245 
	C530.060974,349.996216 530.000549,339.839630 530.000854,329.210205 
z"/>
<path fill="#000000" opacity="1.000000" stroke="none" 
	d="
M254.210159,363.999023 
	C251.429031,364.175934 249.947708,363.632904 249.971359,360.802917 
	C250.061752,349.996704 250.061783,339.188812 249.966949,328.382660 
	C249.943512,325.713379 251.069626,324.950165 253.553162,324.971283 
	C263.029388,325.051910 272.517487,324.716644 281.980835,325.074646 
	C294.092102,325.532806 299.972412,338.624420 297.486725,348.834320 
	C294.995056,359.068756 288.407990,363.798370 277.128479,363.976990 
	C269.648621,364.095490 262.165344,363.999664 254.210159,363.999023 
z"/>
<path fill="#000000" opacity="1.000000" stroke="none" 
	d="
M402.668549,158.705399 
	C404.625519,153.415054 406.404480,148.474487 408.183441,143.533920 
	C408.600555,143.486282 409.017670,143.438660 409.434814,143.391037 
	C414.213440,157.016495 418.992096,170.641968 423.923523,184.703033 
	C413.640289,184.703033 403.886993,184.703033 393.520844,184.703033 
	C396.541168,176.066757 399.515869,167.560974 402.668549,158.705399 
z"/>
<path fill="#000000" opacity="1.000000" stroke="none" 
	d="
M391.333252,393.289307 
	C393.991150,386.006317 396.470764,379.072296 398.950378,372.138245 
	C399.509338,372.100983 400.068298,372.063690 400.627228,372.026428 
	C405.301239,385.432159 409.975250,398.837921 414.810577,412.706360 
	C404.483215,412.706360 394.780853,412.706360 384.385223,412.706360 
	C386.683563,406.232666 388.919250,399.935455 391.333252,393.289307 
z"/>
</svg>