<svg version="1.1" id="Layer_1" xmlns="http://www.w3.org/2000/svg" xmlns:xlink="http://www.w3.org/1999/xlink" x="0px" y="0px"
	 width="100%" viewBox="0 0 300 128" enable-background="new 0 0 300 128" xml:space="preserve">
<path fill="#000000" opacity="1.000000" stroke="none" 
	d="
M233.000000,129.000000 
	C155.333359,129.000000 78.166710,129.000000 1.000052,129.000000 
	C1.000035,86.333366 1.000035,43.666737 1.000017,1.000080 
	C100.999939,1.000054 200.999878,1.000054 300.999878,1.000027 
	C300.999908,43.666592 300.999908,86.333183 300.999939,128.999878 
	C278.500000,129.000000 256.000000,129.000000 233.000000,129.000000 
M18.038399,42.887054 
	C18.081234,45.259567 18.124071,47.632084 18.037111,50.836681 
	C18.003111,57.409592 22.190733,64.679245 27.101709,66.572693 
	C33.061134,68.870377 41.851780,66.642609 45.864918,61.069637 
	C50.556583,54.554413 54.638092,47.599815 59.596470,41.211456 
	C64.309074,49.374466 68.100990,58.195015 76.306488,64.776085 
	C81.320076,68.338669 86.692482,67.403381 92.714828,65.751251 
	C94.457909,63.405205 96.974953,61.306313 97.816101,58.672249 
	C102.606453,43.671120 98.893700,30.181253 89.473122,18.048449 
	C84.712143,11.916760 71.544395,10.191322 66.262741,16.164951 
	C64.355568,18.322001 62.111759,20.181414 59.325260,22.006105 
	C55.197750,19.013435 51.445595,14.365659 46.874489,13.328979 
	C31.259474,9.787663 24.382507,20.130854 20.010145,34.756168 
	C19.395592,37.172836 18.781038,39.589508 18.038399,42.887054 
M141.045166,111.421181 
	C139.926880,112.190598 137.945343,112.909828 137.897003,113.741470 
	C137.828171,114.925201 138.900192,116.784088 139.983826,117.293846 
	C141.975983,118.231003 144.696457,119.333900 146.448151,118.653969 
	C148.885483,117.707924 151.756210,115.493248 152.424377,113.226921 
	C152.857849,111.756599 149.957870,108.921654 148.053085,107.274460 
	C146.723145,106.124405 144.549454,105.950066 142.752625,105.339905 
	C142.888809,104.760162 143.024979,104.180420 143.161163,103.600677 
	C145.801331,104.283920 148.441483,104.967163 151.396667,105.731934 
	C151.600998,101.142532 149.218307,99.666039 146.158096,99.994148 
	C143.481476,100.281136 139.715927,100.946449 138.583267,102.776474 
	C136.587830,106.000488 138.957733,108.994339 141.885483,111.094032 
	C141.885483,111.094032 141.665939,111.289047 141.045166,111.421181 
M124.141602,111.382179 
	C121.679047,111.801125 119.711624,112.786163 121.312149,115.640297 
	C123.234802,119.068871 126.848160,119.777176 130.025482,118.673569 
	C132.276764,117.891624 134.744095,115.593643 135.583710,113.389183 
	C136.826981,110.124901 133.944321,108.451561 131.170822,107.253563 
	C129.535614,106.547241 127.996452,105.618553 126.414093,104.789871 
	C126.674683,104.283646 126.935272,103.777420 127.195862,103.271194 
	C128.346512,103.789551 129.455353,104.551414 130.659500,104.758186 
	C131.878647,104.967529 133.192093,104.627762 134.464233,104.528511 
	C133.898514,103.266457 133.663620,101.593811 132.704010,100.820625 
	C130.004776,98.645767 123.840904,99.221268 122.160133,101.771889 
	C119.468681,105.856232 121.815292,108.599236 124.910484,111.079720 
	C124.910484,111.079720 124.763657,111.213074 124.141602,111.382179 
M123.002022,66.652298 
	C123.665787,64.745857 124.849960,62.853638 124.902504,60.930492 
	C125.120804,52.940918 124.976883,44.941914 125.018944,36.946648 
	C125.026672,35.476986 125.280701,34.008621 125.421043,32.539654 
	C129.651459,37.939827 132.973969,43.294643 135.796722,48.901093 
	C137.566269,52.415672 139.628174,54.241165 143.835526,54.095379 
	C148.004150,53.950943 149.483337,51.408188 151.098373,48.356720 
	C153.908569,43.047108 156.945908,37.857712 159.888016,32.617912 
	C161.002319,34.988331 160.998962,36.958248 161.002914,38.928146 
	C161.018616,46.756790 161.052628,54.585445 161.046387,62.414070 
	C161.043594,65.896149 162.979446,67.034988 166.165329,66.993073 
	C168.750290,66.959053 170.916946,66.549400 170.920502,63.316441 
	C170.937134,48.159218 170.995865,33.001286 170.824463,17.846033 
	C170.810577,16.617607 169.417328,14.728614 168.247620,14.308366 
	C163.584290,12.632928 159.792740,14.298215 157.388580,18.634459 
	C155.935989,21.254406 154.649033,23.967903 153.152664,26.561497 
	C149.973907,32.071110 146.706955,37.529842 143.060760,43.713951 
	C137.914154,34.245827 133.264175,25.817581 128.740829,17.321913 
	C126.076447,12.317735 121.508415,13.892285 117.699860,14.500858 
	C116.525223,14.688555 115.186462,18.339703 115.149765,20.426594 
	C114.918442,33.581745 115.007660,46.743042 115.043221,59.902168 
	C115.061180,66.548019 115.550804,66.975716 123.002022,66.652298 
M264.446960,66.999588 
	C267.940460,66.329826 271.433929,65.660065 273.745209,65.216957 
	C277.404022,65.798180 280.326324,67.016525 282.701630,66.333298 
	C283.958679,65.971725 284.841858,62.317600 284.898865,60.124069 
	C285.136353,50.986980 285.043457,41.839718 284.975800,32.696892 
	C284.936707,27.415604 282.335815,25.776964 277.228821,27.397032 
	C275.676575,27.889450 273.754822,28.318077 272.301453,27.849045 
	C259.482269,23.711990 250.309326,28.167652 246.643478,41.127647 
	C242.998932,54.012337 252.951950,69.298492 264.446960,66.999588 
M206.004501,65.904839 
	C207.282578,65.130821 208.546982,64.333000 209.841919,63.588276 
	C211.858002,62.428825 213.729599,61.142544 211.838531,58.557079 
	C210.401093,56.591831 209.200409,54.458378 205.836945,56.322914 
	C203.189911,57.790287 199.923904,58.688496 196.894760,58.799381 
	C191.445267,58.998852 188.890228,56.485405 187.739990,50.548187 
	C189.522858,50.363091 191.256577,50.049335 192.994034,50.027142 
	C198.811188,49.952827 204.640961,50.176952 210.439865,49.839561 
	C211.937027,49.752449 214.365952,48.236641 214.613754,47.020027 
	C215.972778,40.348248 210.657730,30.969608 204.326553,28.005045 
	C196.006668,24.109270 186.841904,26.289957 181.063599,33.540298 
	C175.750626,40.206806 175.643845,53.047398 180.828568,59.784443 
	C187.319855,68.219238 196.131439,67.826797 206.004501,65.904839 
M241.856445,27.323927 
	C240.697998,27.218184 239.520279,26.923681 238.384491,27.039717 
	C233.731323,27.515097 231.465897,25.734453 231.958267,20.841944 
	C232.289627,17.549257 230.809662,15.972647 227.311783,15.999040 
	C223.544113,16.027468 222.912537,18.203400 223.001022,21.219736 
	C223.089188,24.226154 222.911102,26.799906 218.788559,27.191963 
	C217.462158,27.318104 215.215500,29.634995 215.365631,30.660341 
	C215.595444,32.229847 217.391006,34.574020 218.782898,34.774094 
	C222.409378,35.295376 223.052887,37.258408 223.005051,40.272076 
	C222.936295,44.603905 222.931854,48.939339 223.023636,53.270615 
	C223.252548,64.072250 230.987030,69.911308 241.200882,66.611351 
	C242.546814,66.176498 243.342438,63.120750 243.718506,61.150158 
	C243.834152,60.544109 241.733978,58.831593 240.601364,58.785637 
	C234.743576,58.547947 232.441895,56.653473 232.080902,50.861610 
	C231.894608,47.872574 231.989609,44.864098 232.006683,41.864685 
	C232.044083,35.298187 232.056900,35.298256 238.683151,34.989956 
	C244.191742,34.733650 245.108322,33.029587 241.856445,27.323927 
M36.444603,112.800613 
	C35.950993,108.692474 35.209320,104.595345 35.026291,100.473412 
	C34.795311,95.271461 33.078476,93.222488 27.867334,93.033257 
	C25.710712,92.954933 23.547762,93.067688 21.389177,93.022484 
	C18.568666,92.963432 17.009108,94.115341 17.032446,97.114136 
	C17.077692,102.928093 16.944914,108.746330 17.143782,114.553963 
	C17.187981,115.844757 17.962845,117.616982 18.979837,118.279724 
	C23.221193,121.043640 33.330177,118.086082 36.444603,112.800613 
M200.449707,117.728241 
	C203.844635,118.431076 205.513611,117.326210 205.052353,113.604286 
	C204.828506,111.797928 205.036163,109.941948 204.975357,108.110863 
	C204.714767,100.263145 201.045425,97.658958 193.509064,99.944550 
	C188.659973,101.415169 188.156250,103.271950 190.650574,106.101738 
	C189.993423,109.640656 188.629471,112.568321 189.285477,114.936417 
	C189.758194,116.642853 192.782043,118.011696 194.935745,118.748138 
	C196.278015,119.207115 198.118759,118.208267 200.449707,117.728241 
M167.002441,112.189545 
	C167.323181,114.223099 167.643936,116.256645 167.964691,118.290192 
	C168.602249,118.274384 169.239807,118.258568 169.877365,118.242752 
	C170.243408,116.953094 170.973999,115.644661 170.908737,114.377213 
	C170.693161,110.190170 172.652023,108.648109 176.621628,108.955894 
	C177.763382,109.044418 178.985565,108.952660 180.080627,108.633720 
	C184.135712,107.452637 186.909729,104.977104 186.699005,100.468658 
	C186.498856,96.186020 183.314423,93.354546 178.731918,93.075066 
	C176.246063,92.923454 173.743195,93.073044 171.248947,93.030968 
	C168.326431,92.981682 167.008072,94.404457 167.027802,97.294861 
	C167.059586,101.952309 167.013565,106.610283 167.002441,112.189545 
M102.128464,106.052643 
	C102.098389,107.542183 101.541573,109.304520 102.143486,110.466751 
	C103.574013,113.228867 105.022957,116.786186 107.464790,117.985550 
	C109.747002,119.106499 113.406425,117.910606 116.272018,117.083878 
	C117.232735,116.806717 117.615730,114.527039 118.262794,113.162689 
	C116.819290,113.194885 115.021774,112.690811 114.001595,113.364281 
	C111.400970,115.081047 109.412720,115.625206 107.587395,112.401352 
	C108.165169,111.934685 108.511429,111.418060 108.910591,111.373306 
	C110.713127,111.171234 112.530624,111.102509 114.342751,110.986099 
	C118.553650,110.715607 120.438667,108.483994 118.345436,104.893021 
	C116.914352,102.437965 113.669891,100.136673 110.880913,99.594711 
	C106.998932,98.840370 103.402611,100.705627 102.128464,106.052643 
M261.226654,110.949409 
	C262.453217,109.729935 264.905121,108.167839 264.677795,107.354897 
	C263.981018,104.862854 262.809082,101.793411 260.817230,100.520103 
	C256.538452,97.784859 251.188873,99.868324 248.990005,104.283485 
	C246.475906,109.331604 248.148682,115.426514 252.696243,117.787483 
	C258.008606,120.545525 262.478088,118.783958 264.809326,111.664749 
	C262.132965,112.842926 260.478760,113.996834 258.705505,114.224724 
	C257.125244,114.427818 255.413330,113.606491 253.759521,113.237267 
	C253.884857,112.606453 254.010193,111.975639 254.135529,111.344826 
	C256.218567,111.223999 258.301636,111.103180 261.226654,110.949409 
M227.716797,102.784882 
	C226.901764,99.847588 226.086716,96.910286 225.136414,93.485481 
	C223.803345,94.383514 222.613846,94.736382 222.350586,95.437195 
	C220.961288,99.135506 218.693375,99.946098 214.702972,99.604210 
	C208.961884,99.112343 208.045624,100.563644 208.001251,106.642441 
	C207.981873,109.296478 207.862671,111.963615 208.084702,114.599884 
	C208.200623,115.976273 208.958191,117.298630 209.425949,118.645386 
	C209.985367,118.599571 210.544769,118.553757 211.104172,118.507950 
	C211.404663,116.555450 211.902328,114.609810 211.970505,112.649231 
	C212.224579,105.341873 212.360641,105.113922 220.589417,103.168037 
	C220.782471,105.809319 220.676163,108.420113 221.236404,110.879036 
	C221.799927,113.352440 222.784790,115.824722 224.114685,117.968994 
	C224.497726,118.586601 226.711655,118.068687 228.086166,118.071388 
	C227.903854,117.054550 227.603714,116.042725 227.560181,115.019981 
	C227.393875,111.111382 227.310181,107.199272 227.716797,102.784882 
M59.705948,115.277832 
	C60.461826,116.131859 61.071556,117.219780 61.998974,117.799286 
	C65.942665,120.263565 71.532158,118.905052 73.241882,115.195808 
	C74.969872,111.446938 73.509232,109.121971 68.125938,106.879868 
	C66.914932,106.375488 65.801056,105.637894 64.642464,105.007668 
	C64.820114,104.521233 64.997772,104.034790 65.175423,103.548355 
	C66.249786,103.765526 67.316330,104.042114 68.400497,104.184807 
	C69.748482,104.362236 71.111031,104.429031 72.467285,104.543610 
	C71.627869,103.132126 70.847237,100.565483 69.938347,100.519226 
	C66.839249,100.361511 62.952408,100.141037 60.820938,101.806389 
	C59.322800,102.976921 60.190617,107.175598 60.001949,110.022102 
	C60.308277,110.024200 60.614605,110.026299 60.920933,110.028397 
	C60.412056,111.586075 59.903179,113.143745 59.705948,115.277832 
M88.006065,112.528488 
	C88.145683,110.873833 87.843452,108.994614 88.540466,107.623253 
	C89.351151,106.028214 91.037148,104.878059 92.343277,103.534836 
	C93.214500,105.144554 94.515335,106.669525 94.853653,108.384384 
	C95.330376,110.800720 94.868820,113.395164 95.274521,115.835983 
	C95.434647,116.799347 96.847916,117.554420 97.690567,118.404343 
	C98.402122,117.600502 99.694717,116.818398 99.725746,115.989090 
	C99.868263,112.180656 100.128304,108.273148 99.450867,104.564751 
	C98.675621,100.320885 88.155159,97.914352 85.057297,101.014542 
	C84.622406,101.449738 84.236610,102.164703 84.226509,102.756958 
	C84.149963,107.248535 84.094681,111.744423 84.244926,116.231857 
	C84.268692,116.941879 85.359627,117.616165 85.957161,118.306969 
	C86.581482,117.664650 87.461411,117.122559 87.762894,116.353661 
	C88.109245,115.470375 87.943359,114.386230 88.006065,112.528488 
M245.996414,108.702980 
	C245.995270,108.537231 246.044922,108.350060 245.985397,108.208923 
	C244.893677,105.620338 244.344986,101.410889 242.567200,100.803047 
	C239.215103,99.656937 235.146957,100.494377 231.394882,100.763985 
	C230.905792,100.799126 230.178558,102.340508 230.153992,103.201118 
	C230.035904,107.339005 229.977921,111.491768 230.238983,115.617706 
	C230.301102,116.599236 231.672073,117.497948 232.441010,118.434753 
	C233.264450,117.387260 234.608063,116.427826 234.803391,115.274010 
	C235.213882,112.849113 234.634003,110.227142 235.211990,107.870323 
	C235.600571,106.285805 237.277145,105.017159 238.377487,103.607193 
	C239.554749,104.987457 241.378830,106.210442 241.761429,107.783936 
	C242.373322,110.300285 241.884109,113.064720 242.164963,115.691727 
	C242.265579,116.632874 243.248825,117.479652 243.829239,118.369492 
	C244.527405,117.441475 245.651978,116.588814 245.832138,115.569267 
	C246.173645,113.636665 245.973648,111.608368 245.996414,108.702980 
M46.109997,111.861328 
	C46.025932,109.037506 46.185951,106.173988 45.736309,103.409630 
	C45.559269,102.321228 44.020912,101.454247 43.102470,100.486435 
	C42.427284,101.481743 41.246883,102.439827 41.170311,103.479240 
	C40.926846,106.783913 40.741066,110.174316 41.249863,113.419174 
	C41.511368,115.086922 42.959915,117.114616 44.449329,117.948280 
	C50.564224,121.370934 55.993076,118.131950 55.996689,111.324005 
	C55.998096,108.664871 56.088184,105.992012 55.838089,103.353828 
	C55.748150,102.405029 54.778431,101.539635 54.210213,100.636177 
	C53.501064,101.565887 52.341148,102.420372 52.170990,103.440041 
	C51.736652,106.042809 52.181454,108.847496 51.453861,111.330963 
	C50.692081,113.931084 49.071915,116.656494 46.109997,111.861328 
M268.221924,116.638474 
	C269.468658,119.147430 270.923981,119.167366 271.699219,116.531044 
	C272.243805,114.679070 271.899963,112.574791 272.021698,110.587395 
	C272.201996,107.643417 271.734009,104.278870 276.348633,104.212517 
	C276.821747,104.205719 277.704468,102.744110 277.623810,102.047035 
	C277.531464,101.248680 276.729645,100.239510 275.968201,99.861679 
	C272.501251,98.141312 268.140625,100.891365 268.041840,104.857414 
	C267.950867,108.509552 268.070404,112.166946 268.221924,116.638474 
M77.098740,115.838760 
	C77.720375,116.677315 78.342003,117.515869 78.963638,118.354424 
	C79.606567,117.553513 80.768822,116.775482 80.805275,115.947861 
	C80.993576,111.672104 80.994934,107.379234 80.808266,103.103386 
	C80.771240,102.255188 79.627220,101.455307 78.993675,100.633148 
	C78.363632,101.459702 77.235558,102.259148 77.188828,103.117462 
	C76.974091,107.062202 77.061348,111.023384 77.098740,115.838760 
z"/>
<path fill="#152730" opacity="1.000000" stroke="none" 
	d="
M122.591263,66.751450 
	C115.550804,66.975716 115.061180,66.548019 115.043221,59.902168 
	C115.007660,46.743042 114.918442,33.581745 115.149765,20.426594 
	C115.186462,18.339703 116.525223,14.688555 117.699860,14.500858 
	C121.508415,13.892285 126.076447,12.317735 128.740829,17.321913 
	C133.264175,25.817581 137.914154,34.245827 143.060760,43.713951 
	C146.706955,37.529842 149.973907,32.071110 153.152664,26.561497 
	C154.649033,23.967903 155.935989,21.254406 157.388580,18.634459 
	C159.792740,14.298215 163.584290,12.632928 168.247620,14.308366 
	C169.417328,14.728614 170.810577,16.617607 170.824463,17.846033 
	C170.995865,33.001286 170.937134,48.159218 170.920502,63.316441 
	C170.916946,66.549400 168.750290,66.959053 166.165329,66.993073 
	C162.979446,67.034988 161.043594,65.896149 161.046387,62.414070 
	C161.052628,54.585445 161.018616,46.756790 161.002914,38.928146 
	C160.998962,36.958248 161.002319,34.988331 159.888016,32.617912 
	C156.945908,37.857712 153.908569,43.047108 151.098373,48.356720 
	C149.483337,51.408188 148.004150,53.950943 143.835526,54.095379 
	C139.628174,54.241165 137.566269,52.415672 135.796722,48.901093 
	C132.973969,43.294643 129.651459,37.939827 125.421043,32.539654 
	C125.280701,34.008621 125.026672,35.476986 125.018944,36.946648 
	C124.976883,44.941914 125.120804,52.940918 124.902504,60.930492 
	C124.849960,62.853638 123.665787,64.745857 122.591263,66.751450 
z"/>
<path fill="#152730" opacity="1.000000" stroke="none" 
	d="
M264.000275,66.999542 
	C252.951950,69.298492 242.998932,54.012337 246.643478,41.127647 
	C250.309326,28.167652 259.482269,23.711990 272.301453,27.849045 
	C273.754822,28.318077 275.676575,27.889450 277.228821,27.397032 
	C282.335815,25.776964 284.936707,27.415604 284.975800,32.696892 
	C285.043457,41.839718 285.136353,50.986980 284.898865,60.124069 
	C284.841858,62.317600 283.958679,65.971725 282.701630,66.333298 
	C280.326324,67.016525 277.404022,65.798180 273.745209,65.216957 
	C271.433929,65.660065 267.940460,66.329826 264.000275,66.999542 
M272.543335,55.968182 
	C273.357910,51.876297 274.642700,47.810455 274.871155,43.686104 
	C275.174561,38.207706 271.744080,35.174644 266.250763,35.030926 
	C261.891754,34.916878 258.911041,37.098160 257.194061,40.831886 
	C254.764603,46.114929 255.954773,52.873692 259.640076,56.145164 
	C263.626770,59.684189 267.781494,59.235466 272.543335,55.968182 
z"/>
<path fill="#152730" opacity="1.000000" stroke="none" 
	d="
M205.634384,66.070206 
	C196.131439,67.826797 187.319855,68.219238 180.828568,59.784443 
	C175.643845,53.047398 175.750626,40.206806 181.063599,33.540298 
	C186.841904,26.289957 196.006668,24.109270 204.326553,28.005045 
	C210.657730,30.969608 215.972778,40.348248 214.613754,47.020027 
	C214.365952,48.236641 211.937027,49.752449 210.439865,49.839561 
	C204.640961,50.176952 198.811188,49.952827 192.994034,50.027142 
	C191.256577,50.049335 189.522858,50.363091 187.739990,50.548187 
	C188.890228,56.485405 191.445267,58.998852 196.894760,58.799381 
	C199.923904,58.688496 203.189911,57.790287 205.836945,56.322914 
	C209.200409,54.458378 210.401093,56.591831 211.838531,58.557079 
	C213.729599,61.142544 211.858002,62.428825 209.841919,63.588276 
	C208.546982,64.333000 207.282578,65.130821 205.634384,66.070206 
M201.514862,36.767529 
	C194.826096,33.199673 189.508301,35.126789 187.623795,42.371223 
	C193.164001,42.371223 198.547546,42.371223 204.998596,42.371223 
	C203.765472,40.120407 202.958450,38.647358 201.514862,36.767529 
z"/>
<path fill="#3A6AAE" opacity="1.000000" stroke="none" 
	d="
M75.953857,64.115326 
	C68.100990,58.195015 64.309074,49.374466 59.243458,40.669479 
	C57.217827,37.731052 55.545212,35.334599 53.896370,32.585522 
	C51.783974,29.833117 49.842777,27.216446 47.468239,25.081825 
	C43.390793,21.416359 38.813824,21.751665 35.656898,25.970638 
	C33.544971,28.793058 31.948324,32.001045 29.734776,34.900650 
	C26.287218,34.511734 23.225975,34.258659 20.164734,34.005581 
	C24.382507,20.130854 31.259474,9.787663 46.874489,13.328979 
	C51.445595,14.365659 55.197750,19.013435 59.721741,22.442545 
	C61.788815,24.939049 63.459408,26.999115 65.211906,29.394058 
	C70.235947,37.806061 75.178085,45.883186 79.830399,54.166855 
	C78.345009,57.620712 77.149429,60.868019 75.953857,64.115326 
z"/>
<path fill="#152730" opacity="1.000000" stroke="none" 
	d="
M242.235321,27.502728 
	C245.108322,33.029587 244.191742,34.733650 238.683151,34.989956 
	C232.056900,35.298256 232.044083,35.298187 232.006683,41.864685 
	C231.989609,44.864098 231.894608,47.872574 232.080902,50.861610 
	C232.441895,56.653473 234.743576,58.547947 240.601364,58.785637 
	C241.733978,58.831593 243.834152,60.544109 243.718506,61.150158 
	C243.342438,63.120750 242.546814,66.176498 241.200882,66.611351 
	C230.987030,69.911308 223.252548,64.072250 223.023636,53.270615 
	C222.931854,48.939339 222.936295,44.603905 223.005051,40.272076 
	C223.052887,37.258408 222.409378,35.295376 218.782898,34.774094 
	C217.391006,34.574020 215.595444,32.229847 215.365631,30.660341 
	C215.215500,29.634995 217.462158,27.318104 218.788559,27.191963 
	C222.911102,26.799906 223.089188,24.226154 223.001022,21.219736 
	C222.912537,18.203400 223.544113,16.027468 227.311783,15.999040 
	C230.809662,15.972647 232.289627,17.549257 231.958267,20.841944 
	C231.465897,25.734453 233.731323,27.515097 238.384491,27.039717 
	C239.520279,26.923681 240.697998,27.218184 242.235321,27.502728 
z"/>
<path fill="#4477B7" opacity="1.000000" stroke="none" 
	d="
M65.129997,29.059177 
	C63.459408,26.999115 61.788815,24.939049 60.069897,22.527817 
	C62.111759,20.181414 64.355568,18.322001 66.262741,16.164951 
	C71.544395,10.191322 84.712143,11.916760 89.473122,18.048449 
	C98.893700,30.181253 102.606453,43.671120 97.816101,58.672249 
	C96.974953,61.306313 94.457909,63.405205 92.093689,65.717545 
	C90.301826,62.428123 89.131104,59.172405 88.120499,55.587254 
	C88.843086,54.472198 89.751198,53.752430 89.915337,52.890923 
	C91.873032,42.615276 89.277306,33.187649 83.271637,24.980816 
	C79.120689,19.308491 74.322289,19.501326 69.253616,24.416107 
	C67.771683,25.853045 66.498734,27.505503 65.129997,29.059177 
z"/>
<path fill="#4577B7" opacity="1.000000" stroke="none" 
	d="
M53.872593,32.938148 
	C55.545212,35.334599 57.217827,37.731052 58.937378,40.481667 
	C54.638092,47.599815 50.556583,54.554413 45.864918,61.069637 
	C41.851780,66.642609 33.061134,68.870377 27.101709,66.572693 
	C22.190733,64.679245 18.003111,57.409592 18.518007,50.418827 
	C21.943495,49.668732 24.888088,49.336494 27.899870,49.390911 
	C29.385622,52.169701 30.325756,55.283962 32.412987,56.666817 
	C33.554981,57.423412 36.886215,55.609138 38.763512,54.290001 
	C40.262074,53.237003 41.039886,51.168961 42.163345,49.569534 
	C46.060371,44.021484 49.968616,38.481316 53.872593,32.938148 
z"/>
<path fill="#142730" opacity="1.000000" stroke="none" 
	d="
M36.291695,113.152939 
	C33.330177,118.086082 23.221193,121.043640 18.979837,118.279724 
	C17.962845,117.616982 17.187981,115.844757 17.143782,114.553963 
	C16.944914,108.746330 17.077692,102.928093 17.032446,97.114136 
	C17.009108,94.115341 18.568666,92.963432 21.389177,93.022484 
	C23.547762,93.067688 25.710712,92.954933 27.867334,93.033257 
	C33.078476,93.222488 34.795311,95.271461 35.026291,100.473412 
	C35.209320,104.595345 35.950993,108.692474 36.291695,113.152939 
M31.559410,110.477928 
	C29.420488,109.361359 27.361576,107.799423 25.095215,107.392273 
	C24.390482,107.265671 22.572241,110.199532 22.365860,111.868576 
	C22.273922,112.612083 25.077599,114.622025 26.268383,114.406563 
	C28.135532,114.068733 29.749525,112.331749 31.559410,110.477928 
M28.334394,97.820503 
	C27.544708,97.599342 26.659250,97.039368 25.985884,97.229713 
	C24.704218,97.591988 23.120308,98.109428 22.484381,99.093796 
	C22.072348,99.731583 23.036665,102.261063 23.526089,102.303398 
	C25.536657,102.477325 27.601570,102.022964 29.646492,101.799736 
	C29.427071,100.586952 29.207649,99.374161 28.334394,97.820503 
z"/>
<path fill="#152730" opacity="1.000000" stroke="none" 
	d="
M200.092758,117.795959 
	C198.118759,118.208267 196.278015,119.207115 194.935745,118.748138 
	C192.782043,118.011696 189.758194,116.642853 189.285477,114.936417 
	C188.629471,112.568321 189.993423,109.640656 190.650574,106.101738 
	C188.156250,103.271950 188.659973,101.415169 193.509064,99.944550 
	C201.045425,97.658958 204.714767,100.263145 204.975357,108.110863 
	C205.036163,109.941948 204.828506,111.797928 205.052353,113.604286 
	C205.513611,117.326210 203.844635,118.431076 200.092758,117.795959 
z"/>
<path fill="#142730" opacity="1.000000" stroke="none" 
	d="
M167.001434,111.728790 
	C167.013565,106.610283 167.059586,101.952309 167.027802,97.294861 
	C167.008072,94.404457 168.326431,92.981682 171.248947,93.030968 
	C173.743195,93.073044 176.246063,92.923454 178.731918,93.075066 
	C183.314423,93.354546 186.498856,96.186020 186.699005,100.468658 
	C186.909729,104.977104 184.135712,107.452637 180.080627,108.633720 
	C178.985565,108.952660 177.763382,109.044418 176.621628,108.955894 
	C172.652023,108.648109 170.693161,110.190170 170.908737,114.377213 
	C170.973999,115.644661 170.243408,116.953094 169.877365,118.242752 
	C169.239807,118.258568 168.602249,118.274384 167.964691,118.290192 
	C167.643936,116.256645 167.323181,114.223099 167.001434,111.728790 
M173.791229,97.151237 
	C170.740875,99.278732 170.096649,102.688477 172.713211,103.353905 
	C175.043457,103.946518 177.776932,103.276855 180.246857,102.757401 
	C180.825500,102.635704 181.541260,100.085426 181.377274,99.984924 
	C179.539536,98.858566 177.548813,97.977936 175.578979,97.075447 
	C175.309006,96.951752 174.928741,97.068794 173.791229,97.151237 
z"/>
<path fill="#16262F" opacity="1.000000" stroke="none" 
	d="
M102.192947,105.645508 
	C103.402611,100.705627 106.998932,98.840370 110.880913,99.594711 
	C113.669891,100.136673 116.914352,102.437965 118.345436,104.893021 
	C120.438667,108.483994 118.553650,110.715607 114.342751,110.986099 
	C112.530624,111.102509 110.713127,111.171234 108.910591,111.373306 
	C108.511429,111.418060 108.165169,111.934685 107.587395,112.401352 
	C109.412720,115.625206 111.400970,115.081047 114.001595,113.364281 
	C115.021774,112.690811 116.819290,113.194885 118.262794,113.162689 
	C117.615730,114.527039 117.232735,116.806717 116.272018,117.083878 
	C113.406425,117.910606 109.747002,119.106499 107.464790,117.985550 
	C105.022957,116.786186 103.574013,113.228867 102.143486,110.466751 
	C101.541573,109.304520 102.098389,107.542183 102.192947,105.645508 
z"/>
<path fill="#142730" opacity="1.000000" stroke="none" 
	d="
M260.805664,110.965881 
	C258.301636,111.103180 256.218567,111.223999 254.135529,111.344826 
	C254.010193,111.975639 253.884857,112.606453 253.759521,113.237267 
	C255.413330,113.606491 257.125244,114.427818 258.705505,114.224724 
	C260.478760,113.996834 262.132965,112.842926 264.809326,111.664749 
	C262.478088,118.783958 258.008606,120.545525 252.696243,117.787483 
	C248.148682,115.426514 246.475906,109.331604 248.990005,104.283485 
	C251.188873,99.868324 256.538452,97.784859 260.817230,100.520103 
	C262.809082,101.793411 263.981018,104.862854 264.677795,107.354897 
	C264.905121,108.167839 262.453217,109.729935 260.805664,110.965881 
z"/>
<path fill="#15272F" opacity="1.000000" stroke="none" 
	d="
M227.456207,103.036674 
	C227.310181,107.199272 227.393875,111.111382 227.560181,115.019981 
	C227.603714,116.042725 227.903854,117.054550 228.086166,118.071388 
	C226.711655,118.068687 224.497726,118.586601 224.114685,117.968994 
	C222.784790,115.824722 221.799927,113.352440 221.236404,110.879036 
	C220.676163,108.420113 220.782471,105.809319 220.589417,103.168037 
	C212.360641,105.113922 212.224579,105.341873 211.970505,112.649231 
	C211.902328,114.609810 211.404663,116.555450 211.104172,118.507950 
	C210.544769,118.553757 209.985367,118.599571 209.425949,118.645386 
	C208.958191,117.298630 208.200623,115.976273 208.084702,114.599884 
	C207.862671,111.963615 207.981873,109.296478 208.001251,106.642441 
	C208.045624,100.563644 208.961884,99.112343 214.702972,99.604210 
	C218.693375,99.946098 220.961288,99.135506 222.350586,95.437195 
	C222.613846,94.736382 223.803345,94.383514 225.136414,93.485481 
	C226.086716,96.910286 226.901764,99.847588 227.456207,103.036674 
z"/>
<path fill="#142730" opacity="1.000000" stroke="none" 
	d="
M125.055206,110.944099 
	C121.815292,108.599236 119.468681,105.856232 122.160133,101.771889 
	C123.840904,99.221268 130.004776,98.645767 132.704010,100.820625 
	C133.663620,101.593811 133.898514,103.266457 134.464233,104.528511 
	C133.192093,104.627762 131.878647,104.967529 130.659500,104.758186 
	C129.455353,104.551414 128.346512,103.789551 127.195862,103.271194 
	C126.935272,103.777420 126.674683,104.283646 126.414093,104.789871 
	C127.996452,105.618553 129.535614,106.547241 131.170822,107.253563 
	C133.944321,108.451561 136.826981,110.124901 135.583710,113.389183 
	C134.744095,115.593643 132.276764,117.891624 130.025482,118.673569 
	C126.848160,119.777176 123.234802,119.068871 121.312149,115.640297 
	C119.711624,112.786163 121.679047,111.801125 124.551041,111.631531 
	C126.273308,115.619797 128.501877,115.121758 130.808945,114.260574 
	C130.960693,113.560043 131.112442,112.859520 131.264191,112.158997 
	C129.194519,111.754028 127.124863,111.349060 125.055206,110.944099 
z"/>
<path fill="#142730" opacity="1.000000" stroke="none" 
	d="
M142.101944,110.895576 
	C138.957733,108.994339 136.587830,106.000488 138.583267,102.776474 
	C139.715927,100.946449 143.481476,100.281136 146.158096,99.994148 
	C149.218307,99.666039 151.600998,101.142532 151.396667,105.731934 
	C148.441483,104.967163 145.801331,104.283920 143.161163,103.600677 
	C143.024979,104.180420 142.888809,104.760162 142.752625,105.339905 
	C144.549454,105.950066 146.723145,106.124405 148.053085,107.274460 
	C149.957870,108.921654 152.857849,111.756599 152.424377,113.226921 
	C151.756210,115.493248 148.885483,117.707924 146.448151,118.653969 
	C144.696457,119.333900 141.975983,118.231003 139.983826,117.293846 
	C138.900192,116.784088 137.828171,114.925201 137.897003,113.741470 
	C137.945343,112.909828 139.926880,112.190598 141.477829,111.678040 
	C143.170135,115.147446 145.142578,115.691345 148.161682,112.369850 
	C146.141769,111.878426 144.121857,111.387001 142.101944,110.895576 
z"/>
<path fill="#142730" opacity="1.000000" stroke="none" 
	d="
M59.550125,114.989624 
	C59.903179,113.143745 60.412056,111.586075 60.920933,110.028397 
	C60.614605,110.026299 60.308277,110.024200 60.001949,110.022102 
	C60.190617,107.175598 59.322800,102.976921 60.820938,101.806389 
	C62.952408,100.141037 66.839249,100.361511 69.938347,100.519226 
	C70.847237,100.565483 71.627869,103.132126 72.467285,104.543610 
	C71.111031,104.429031 69.748482,104.362236 68.400497,104.184807 
	C67.316330,104.042114 66.249786,103.765526 65.175423,103.548355 
	C64.997772,104.034790 64.820114,104.521233 64.642464,105.007668 
	C65.801056,105.637894 66.914932,106.375488 68.125938,106.879868 
	C73.509232,109.121971 74.969872,111.446938 73.241882,115.195808 
	C71.532158,118.905052 65.942665,120.263565 61.998974,117.799286 
	C61.071556,117.219780 60.461826,116.131859 59.550125,114.989624 
M68.144829,111.823235 
	C66.637543,112.127563 65.130257,112.431892 63.622971,112.736221 
	C64.252411,113.397881 64.813461,114.522270 65.525146,114.627449 
	C67.139778,114.866089 69.504204,115.454086 68.144829,111.823235 
z"/>
<path fill="#142730" opacity="1.000000" stroke="none" 
	d="
M88.003021,112.958908 
	C87.943359,114.386230 88.109245,115.470375 87.762894,116.353661 
	C87.461411,117.122559 86.581482,117.664650 85.957169,118.306976 
	C85.359627,117.616165 84.268692,116.941879 84.244926,116.231857 
	C84.094681,111.744423 84.149963,107.248535 84.226509,102.756958 
	C84.236610,102.164703 84.622406,101.449738 85.057297,101.014542 
	C88.155159,97.914352 98.675621,100.320885 99.450867,104.564751 
	C100.128304,108.273148 99.868263,112.180656 99.725746,115.989090 
	C99.694717,116.818398 98.402122,117.600502 97.690567,118.404343 
	C96.847916,117.554420 95.434647,116.799347 95.274521,115.835983 
	C94.868820,113.395164 95.330376,110.800720 94.853653,108.384384 
	C94.515335,106.669525 93.214500,105.144554 92.343269,103.534836 
	C91.037148,104.878059 89.351151,106.028214 88.540466,107.623253 
	C87.843452,108.994614 88.145683,110.873833 88.003021,112.958908 
z"/>
<path fill="#142730" opacity="1.000000" stroke="none" 
	d="
M245.997498,109.161407 
	C245.973648,111.608368 246.173645,113.636665 245.832138,115.569267 
	C245.651978,116.588814 244.527405,117.441475 243.829239,118.369499 
	C243.248825,117.479652 242.265579,116.632874 242.164963,115.691727 
	C241.884109,113.064720 242.373322,110.300285 241.761429,107.783936 
	C241.378830,106.210442 239.554749,104.987457 238.377502,103.607193 
	C237.277145,105.017159 235.600571,106.285805 235.211990,107.870323 
	C234.634003,110.227142 235.213882,112.849113 234.803391,115.274010 
	C234.608063,116.427826 233.264450,117.387260 232.441010,118.434753 
	C231.672073,117.497948 230.301102,116.599236 230.238983,115.617706 
	C229.977921,111.491768 230.035904,107.339005 230.153992,103.201118 
	C230.178558,102.340508 230.905792,100.799126 231.394882,100.763985 
	C235.146957,100.494377 239.215103,99.656937 242.567200,100.803047 
	C244.344986,101.410889 244.893677,105.620338 245.985397,108.208923 
	C246.044922,108.350060 245.995270,108.537231 245.997498,109.161407 
z"/>
<path fill="#152730" opacity="1.000000" stroke="none" 
	d="
M46.162170,112.262299 
	C49.071915,116.656494 50.692081,113.931084 51.453861,111.330963 
	C52.181454,108.847496 51.736652,106.042809 52.170990,103.440041 
	C52.341148,102.420372 53.501064,101.565887 54.210213,100.636177 
	C54.778431,101.539635 55.748150,102.405029 55.838089,103.353828 
	C56.088184,105.992012 55.998096,108.664871 55.996689,111.324005 
	C55.993076,118.131950 50.564224,121.370934 44.449329,117.948280 
	C42.959915,117.114616 41.511368,115.086922 41.249863,113.419174 
	C40.741066,110.174316 40.926846,106.783913 41.170311,103.479240 
	C41.246883,102.439827 42.427284,101.481743 43.102470,100.486435 
	C44.020912,101.454247 45.559269,102.321228 45.736309,103.409630 
	C46.185951,106.173988 46.025932,109.037506 46.162170,112.262299 
z"/>
<path fill="#4071B3" opacity="1.000000" stroke="none" 
	d="
M87.960381,55.916687 
	C89.131104,59.172405 90.301826,62.428123 91.785950,65.859909 
	C86.692482,67.403381 81.320076,68.338669 76.130173,64.445709 
	C77.149429,60.868019 78.345009,57.620712 80.133728,54.362343 
	C82.383690,58.358829 85.126060,57.350204 87.960381,55.916687 
z"/>
<path fill="#142730" opacity="1.000000" stroke="none" 
	d="
M268.159576,116.230247 
	C268.070404,112.166946 267.950867,108.509552 268.041840,104.857414 
	C268.140625,100.891365 272.501251,98.141312 275.968201,99.861679 
	C276.729645,100.239510 277.531464,101.248680 277.623810,102.047035 
	C277.704468,102.744110 276.821747,104.205719 276.348633,104.212517 
	C271.734009,104.278870 272.201996,107.643417 272.021698,110.587395 
	C271.899963,112.574791 272.243805,114.679070 271.699219,116.531044 
	C270.923981,119.167366 269.468658,119.147430 268.159576,116.230247 
z"/>
<path fill="#3E6FB1" opacity="1.000000" stroke="none" 
	d="
M20.087440,34.380875 
	C23.225975,34.258659 26.287218,34.511734 29.683289,35.271194 
	C29.625526,37.187649 29.232939,38.597710 28.563019,40.247314 
	C24.912619,40.993294 21.539553,41.499737 18.166485,42.006180 
	C18.781038,39.589508 19.395592,37.172836 20.087440,34.380875 
z"/>
<path fill="#4274B4" opacity="1.000000" stroke="none" 
	d="
M18.102442,42.446617 
	C21.539553,41.499737 24.912619,40.993294 28.626398,40.662205 
	C28.588966,43.559792 28.210821,46.282021 27.832680,49.004253 
	C24.888088,49.336494 21.943495,49.668732 18.582905,50.002785 
	C18.124071,47.632084 18.081234,45.259567 18.102442,42.446617 
z"/>
<path fill="#142730" opacity="1.000000" stroke="none" 
	d="
M77.069489,115.408707 
	C77.061348,111.023384 76.974091,107.062202 77.188828,103.117462 
	C77.235558,102.259148 78.363632,101.459702 78.993675,100.633148 
	C79.627220,101.455307 80.771240,102.255188 80.808266,103.103386 
	C80.994934,107.379234 80.993576,111.672104 80.805275,115.947861 
	C80.768822,116.775482 79.606567,117.553513 78.963638,118.354424 
	C78.342003,117.515869 77.720375,116.677315 77.069489,115.408707 
z"/>
<path fill="#000000" opacity="1.000000" stroke="none" 
	d="
M272.260681,56.237400 
	C267.781494,59.235466 263.626770,59.684189 259.640076,56.145164 
	C255.954773,52.873692 254.764603,46.114929 257.194061,40.831886 
	C258.911041,37.098160 261.891754,34.916878 266.250763,35.030926 
	C271.744080,35.174644 275.174561,38.207706 274.871155,43.686104 
	C274.642700,47.810455 273.357910,51.876297 272.260681,56.237400 
z"/>
<path fill="#000000" opacity="1.000000" stroke="none" 
	d="
M201.833145,36.970917 
	C202.958450,38.647358 203.765472,40.120407 204.998596,42.371223 
	C198.547546,42.371223 193.164001,42.371223 187.623795,42.371223 
	C189.508301,35.126789 194.826096,33.199673 201.833145,36.970917 
z"/>
<path fill="#000000" opacity="1.000000" stroke="none" 
	d="
M88.120499,55.587254 
	C85.126060,57.350204 82.383690,58.358829 80.423553,54.155792 
	C75.178085,45.883186 70.235947,37.806061 65.211906,29.394058 
	C66.498734,27.505503 67.771683,25.853045 69.253616,24.416107 
	C74.322289,19.501326 79.120689,19.308491 83.271637,24.980816 
	C89.277306,33.187649 91.873032,42.615276 89.915337,52.890923 
	C89.751198,53.752430 88.843086,54.472198 88.120499,55.587254 
z"/>
<path fill="#000000" opacity="1.000000" stroke="none" 
	d="
M27.899868,49.390911 
	C28.210821,46.282021 28.588966,43.559792 28.903732,40.422668 
	C29.232939,38.597710 29.625526,37.187649 30.069605,35.407040 
	C31.948324,32.001045 33.544971,28.793058 35.656898,25.970638 
	C38.813824,21.751665 43.390793,21.416359 47.468239,25.081825 
	C49.842777,27.216446 51.783974,29.833117 53.896370,32.585522 
	C49.968616,38.481316 46.060371,44.021484 42.163345,49.569534 
	C41.039886,51.168961 40.262074,53.237003 38.763512,54.290001 
	C36.886215,55.609138 33.554981,57.423412 32.412987,56.666817 
	C30.325756,55.283962 29.385622,52.169701 27.899868,49.390911 
z"/>
<path fill="#000000" opacity="1.000000" stroke="none" 
	d="
M31.515072,110.832634 
	C29.749525,112.331749 28.135532,114.068733 26.268383,114.406563 
	C25.077599,114.622025 22.273922,112.612083 22.365860,111.868576 
	C22.572241,110.199532 24.390482,107.265671 25.095215,107.392273 
	C27.361576,107.799423 29.420488,109.361359 31.515072,110.832634 
z"/>
<path fill="#000000" opacity="1.000000" stroke="none" 
	d="
M28.661312,97.990936 
	C29.207649,99.374161 29.427071,100.586952 29.646492,101.799736 
	C27.601570,102.022964 25.536657,102.477325 23.526089,102.303398 
	C23.036665,102.261063 22.072348,99.731583 22.484381,99.093796 
	C23.120308,98.109428 24.704218,97.591988 25.985884,97.229713 
	C26.659250,97.039368 27.544708,97.599342 28.661312,97.990936 
z"/>
<path fill="#000000" opacity="1.000000" stroke="none" 
	d="
M174.195374,97.112808 
	C174.928741,97.068794 175.309006,96.951752 175.578979,97.075447 
	C177.548813,97.977936 179.539536,98.858566 181.377274,99.984924 
	C181.541260,100.085426 180.825500,102.635704 180.246857,102.757401 
	C177.776932,103.276855 175.043457,103.946518 172.713211,103.353905 
	C170.096649,102.688477 170.740875,99.278732 174.195374,97.112808 
z"/>
<path fill="#000000" opacity="1.000000" stroke="none" 
	d="
M124.982849,111.011909 
	C127.124863,111.349060 129.194519,111.754028 131.264191,112.158997 
	C131.112442,112.859520 130.960693,113.560043 130.808945,114.260574 
	C128.501877,115.121758 126.273308,115.619797 124.862076,111.546982 
	C124.763657,111.213074 124.910484,111.079720 124.982849,111.011909 
z"/>
<path fill="#000000" opacity="1.000000" stroke="none" 
	d="
M141.993713,110.994804 
	C144.121857,111.387001 146.141769,111.878426 148.161682,112.369850 
	C145.142578,115.691345 143.170135,115.147446 141.788208,111.611977 
	C141.665939,111.289047 141.885483,111.094032 141.993713,110.994804 
z"/>
<path fill="#000000" opacity="1.000000" stroke="none" 
	d="
M68.397270,112.026390 
	C69.504204,115.454086 67.139778,114.866089 65.525146,114.627449 
	C64.813461,114.522270 64.252411,113.397881 63.622971,112.736221 
	C65.130257,112.431892 66.637543,112.127563 68.397270,112.026390 
z"/>
</svg>